<?xml version="1.0" encoding="UTF-8"?>
<!-- Created with Inkscape (http://www.inkscape.org/) -->
<svg width="156.67mm" height="332mm" version="1.1" viewBox="0 0 156.67 332" xmlns="http://www.w3.org/2000/svg">
 <path d="m18.558 0.52917c-9.6646 9.66e-4 -18.557 7.8354-18.558 17.5l1.0583 20.624 2.6458 20.624-3.7042 41.249 3.175 58.683-0.52917 29.767-1.5875 30.617 3.175 25.515-1.5875 55.282-1.0583 14.639c9.66e-4 9.6646 6.2479 15.912 15.912 15.912h44.847l43.789 0.52917 31.977 0.52916h15.912l2.6458-20.553-2.1167-13.388-16.442-1.5875-31.977 2.1167-28.066-2.6458-24.664 1.5875-15.231 1.5875-1.6874-20.854-1.7528-31.892 1.9513-31.892-2.8134-32.318 2.959-41.673-2.8002-29.773-0.30955-19.127 2.8654-19.127-1.8521-18.466 1.8521-18.995 22.451-1.0583 28.377-0.64104 11.804 1.6507 12.838-1.36 19.765 1.9378h17.5l1.0583-11.547 0.51691-14.115-1.5752-9.3384h-17.5l-23.663 0.52917-18.521-1.0583-23.479 1.9419-18.706-0.3544z" color="#000000" fill="#a1a1a1" fill-opacity=".49" fill-rule="evenodd" stroke-linecap="square" stroke-linejoin="round" stroke-miterlimit="58.8" style="-inkscape-stroke:none;paint-order:stroke fill markers"/>
</svg>
