<?xml version="1.0" encoding="UTF-8"?>
<!-- Created with Inkscape (http://www.inkscape.org/) -->
<svg width="156.67mm" height="332mm" version="1.1" viewBox="0 0 156.67 332" xmlns="http://www.w3.org/2000/svg">
 <path d="m139.36 331.02c9.6643-0.0736 18.498-7.9748 18.426-17.639l-1.2134-20.616-2.8009-20.604 3.3938-41.275-1.2054-19.553-2.4108-39.105 0.30529-29.77 1.3572-30.629-3.3668-25.49 1.1717-55.292 0.94821-14.646c-0.07365-9.6643-6.3674-15.864-16.032-15.792l-44.846 0.33728-43.792-0.19984-31.98-0.28866-15.912 0.11967-2.4912 20.573 2.2173 13.372 16.453 1.4638 31.96-2.3571 28.085 2.4347 24.651-1.7729 15.219-1.702 1.8442 20.841 1.9926 31.878-1.7114 31.906 3.0563 32.296-2.6455 41.694 3.024 29.752 0.45339 19.124-2.7215 19.148 1.9909 18.451-1.7092 19.008-22.442 1.2271-28.372 0.85444-11.816-1.5619-12.827 1.4565-19.779-1.7891-17.5 0.13161-0.97146 11.554-0.41074 14.118 1.6454 9.3263 17.5-0.13161 23.659-0.70711 18.529 0.91901 23.464-2.1184 18.708 0.21372z" color="#000000" fill="#a1a1a1" fill-rule="evenodd" opacity=".49" stroke-linecap="square" stroke-linejoin="round" stroke-miterlimit="58.8" style="-inkscape-stroke:none;paint-order:stroke fill markers"/>
</svg>
