<?xml version="1.0" encoding="UTF-8"?>
<!-- Uploaded to: SVG Repo, www.svgrepo.com, Generator: SVG Repo Mixer Tools -->
<svg id="Eat_x5F_healthy" width="800px" height="800px" enable-background="new 0 0 512 512" fill="#000000" version="1.1" viewBox="0 0 512 512" xmlSpace="preserve" xmlns="http://www.w3.org/2000/svg" xmlns:xlink="http://www.w3.org/1999/xlink"><defs><radialGradient id="radialGradient56237" cx="117.58" cy="167.12" r="74.993" gradientTransform="matrix(3.0236 -1.187 1.0642 2.5037 -369.32 52.864)" gradientUnits="userSpaceOnUse"><stop stop-color="#7ea692" stop-opacity=".6" offset="0"/><stop stop-color="#7ea692" stop-opacity="0" offset="1"/></radialGradient></defs>



<g fill="#8c8c8c">

<path d="m427.15 321.53-9.68-2.512c-2.4145 9.3056-7.2379 18.442-11.776 27.009-5.5234 10.427-11.24 20.01-19.468 28.026-4.325 4.214-8.9902 9.0506-13.96 12.243-4.8029 3.0851-9.8906 4.5502-15.231 7.2199l4.472 8.945c10.387-5.192 19.894-10.444 28.321-18.072 10.64-9.6301 18.279-21.452 25.079-34.448 4.7194-9.0188 9.698-18.603 12.242-28.411z"/>

<path d="m39.773 438.59 32.04 2.1278 50.582 0.0584 34.085-0.90617 147.8-0.64 120.24 0.75935 27.561-1.3994v10l-79.724-2.56-64.554 2.56h-268.02z"/>

<path d="m61.349 269.52c0.61-3.155 1.201-6.113 1.775-8.91l9.2567 1.6548 10.465 2.9746 7.9046 5.5346 0.1902-3.9959 3.2628-5.3891-7.2428-0.74475-7.2428-3.3048-7.7576-2.2597-6.7279-4.3498c0.69727-3.1306 0.0442-6.0391 0.61822-8.7434 2.5938-12.22 5.387-20.27 7.4258-25.806 1.4919-4.0576 3.7941-8.9477 6.7447-11.935 2.4821-2.5127 5.423-3.3044 8.7263-4.8304 5.3975-2.4934 11.991-5.1526 18.097-3.8977 2.073 0.42606 4.0897 3.5682 5.9843 4.2657 4.1695 1.5325 10.426 3.9198 13.46 6.9866 2.4044 2.4305 1.8322 5.2878 3.309 8.4844 3.339 7.229 3.665 15.326 0.918 22.797-0.354 0.961-0.875 2.236-1.543 3.781l-10.864-3.188-4.6258-0.70081-8.7976-5.0472-3.453 9.385 7.2184 1.376 16.348 7.295c-1.6334 3.4408-2.2573 7.346-4.3722 11.578-2.6498 5.3024-6.9108 11.118-10.106 17.175h-66.292v10.276c0 2.789 0.083 5.611 0.247 8.387 3.286 55.857 39.079 102.59 88.316 122.27l-33.435 1.28-59.383-1.28v10l26.847-1.28 86.771-0.33929 31.296 1.6193 85.925-1.28h36.548l41.419-0.75356 28.935 0.75356 74.56 1.28v-10l-18.246 1.7974-26.89-0.51744-47.696-1.28c14.492-5.797 27.803-11.617 39.46-20.909 4.6646-3.718 9.0644-9.067 13.169-13.544 4.2632-4.6495 8.2084-10.906 11.802-16.207 1.4672-2.1644 2.8757-5.625 4.2232-7.8306 6.419-10.506 11.454-20.3 14.857-32.889 1.6087-5.9522 4.1324-12.352 4.9848-18.85 0.8966-6.8356 0.0802-13.78 0.0802-20.428v-0.803c6.387-1.023 12.441-3.518 17.771-7.359 9.082-6.547 15.072-16.236 16.869-27.285 1.799-11.052-0.816-22.14-7.361-31.219-4.6309-6.4272-9.6579-9.9926-16.754-12.923-0.0186-8e-3 -1.3172-1.2954-1.3358-1.303 2.516-3.598 4.116-7.826 4.517-12.239 0.226-2.44 0.093-4.913-0.397-7.36-0.78184-3.8444-1.4134-7.0166-3.9457-9.6463-2.7571-2.8631-7.53-5.0831-11.102-6.8271-4.8458-2.3662-9.1967-4.4962-14.878-3.3426-2.371 0.482-4.632 1.291-6.729 2.389-0.038-0.242-0.064-0.484-0.105-0.727-0.88833-5.1974-3.8206-9.8354-6.1578-14.086-2.4523-4.4597-4.3787-8.4925-8.2479-12.297-1.9534-1.9206-4.0758-4.9774-6.3553-6.5916-9.0173-6.386-19.418-6.8557-29.705-6.7848-7.3666 0.0508-14.675-0.86844-21.376 2.2685-7.7147 3.6115-14.624 9.206-19.889 16.64-2.607 3.682-4.666 7.651-6.183 11.786-7.2363-1.759-14.533-0.31203-21.322 1.4678-6.8136 1.7861-13.117 6.1912-18.337 10.608-5.8364 4.9384-10.319 10.212-12.646 18.314-1.2607 4.3841-0.53661 8.9138-0.39937 13.416 0.16984 5.5717 0.12136 11.101 2.3924 16.259l9.152-4.029c-1.7227-3.9118-3.9494-8.1012-4.104-12.327-0.12949-3.5404 1.577-7.1064 2.569-10.556 1.3251-4.613 2.2858-8.8038 5.2827-12.372 2.6233-3.1234 7.106-5.7698 10.781-7.8049 5.5381-3.0648 11.682-5.7633 17.852-5.4714 2.0921 0.099 4.1872 1.6746 6.2625 2.1694-1.0725 6.8119 0.50963 13.816 2.2099 20.55 1.0835 4.2912 1.4549 8.4726 3.6801 12.424l8.714-4.906c-1.5077-2.6778-3.9676-5.4866-4.8227-8.3688-1.5476-5.2166-3.065-10.674-2.2255-16.029 1.0743-6.8546 5.1923-13.543 9.3043-19.35 4.5302-6.3978 10.655-9.9754 17.732-12.889 2.7867-1.1472 5.7211-3.2731 8.764-3.7929 4.2994-0.73453 8.6106 0.49683 12.806 1.1053 6.3146 0.91579 12.368 2.04 17.726 5.8347 4.1501 2.9391 8.9323 6.5486 11.676 10.654 3.1518 4.7152 4.0232 10.084 5.0068 15.842 1.2512 7.3245 1.7917 14.683-0.79544 21.446-1.2174 3.1824-4.1239 6.2329-6.1446 9.0862l8.161 5.779c2.8239-3.9868 3.7471-8.2833 5.3055-12.774 1.3896-4.0042 3.5465-8.1626 3.8935-12.393 2.184-2.388 5.053-4.037 8.264-4.69 3.686-0.74713 7.3362-1.3841 10.405 0.28632 3.852 2.0969 6.7873 7.0927 7.7263 11.71 0.298 1.484 0.379 2.984 0.242 4.467-0.361 3.987-2.332 7.725-5.359 10.313-4.188-0.528-8.48-0.451-12.742 0.332l1.806 9.836c3.8692-0.71106 7.7749-1.9622 11.533-1.2678 5.909 1.092 12.732 4.5309 17.193 8.9904 1.5669 1.5666 1.7202 3.2593 2.9888 5.0204 4.081 5.6618 7.3113 12.223 7.2873 18.722-0.0188 5.0904-0.30877 10.142-3.0046 14.693-2.5364 4.2819-7.3493 8.1205-11.525 11.131-5.333 3.843-11.617 5.914-18.178 5.997l-14.989 1.28-19.98 0.64-19.98-1.92c3.7087-5.4141 7.2738-12.12 10.542-15.295 9.9506-9.666 17.146-7.7633 17.251-7.7701l-0.102 4e-3 -0.283-9.996c-1.2479 0.0355-9.7656 1.8698-19.603 9.5287-6.236 4.8552-12.237 11.285-19.698 23.528h-2.493c0.177-1.618 0.292-3.249 0.318-4.89 0.13975-9.0496-1.9806-16.491-6.1069-24.251-2.3694-4.4557-5.4001-9.8741-9.0441-13.575-0.9579-0.97286-1.9466-0.60392-2.9639-1.4572-7.1442-5.9924-15.701-10.418-24.92-12.119-3.1635-0.58374-6.4051-2.162-9.6944-2.162-5.6954 0-11.354 2.2063-16.726 3.9959-3.0247 1.0075-5.9588 1.0086-8.758 2.5521-2.287 1.267-4.703 2.464-7.177 3.556-1.8194 0.80199-3.6534 2.9588-5.4979 3.8346-4.4621 2.1188-8.9852 2.9518-13.509 3.9853-5.0872 1.1622-10.175 0.48971-15.179 0.30503-1.5505-0.0572-3.0929-1.4464-4.6245-1.6079-1.05-0.11-2.121-0.162-3.2-0.179-4.921-4.1128-10.116-6.2617-15.248-9.4399-3.6286-2.2472-7.2256-5.6491-10.672-7.7988-3.2342-2.0176-7.6155-5.1463-10.485-6.8023-0.14148-7.6401-1.0047-15.322-0.0322-22.95 0.45033-3.5327 3.5798-7.054 4.2682-10.555l1.173-5.965h-6.079c-1.7368 0-5.1461 1.5265-8.904 3.1276-2.3111 0.98462-4.754 1.2015-7.021 3.4684-0.568 0.569-1.097 1.166-1.596 1.782-0.499-0.616-1.028 0.067-1.596-0.502-5.954-5.954-13.18-6.018-15.925-6.596l-6.079-1.28 2.452 5.964c2.175 11.061 3.162 22.327 2.956 33.5-4.13 2.3822-9.6974 6.1207-14.75 9.4872-0.78732 0.52463-2.8421 1.0402-3.597 1.5402-4.3813 2.902-7.596 4.7832-11.986 8.1515 0.49875-3.8328-0.84545-7.7025-1.4718-11.506-0.5767-3.5024-0.35-6.9487-1.8792-10.259-2.262-4.896-5.424-9.192-9.291-12.72 2.214-1.435 4.339-3.118 6.206-4.693 3.0582-2.5816 5.0444-6.9618 8.4004-10.454 4.5309-4.7144 10.505-8.8629 15.073-14.693 3.6706-4.6852 5.7892-9.3885 8.7947-13.924 3.503-5.2868 7.752-10.346 9.9953-14.884 1.4152-2.8628 1.6304-6.2003 2.5057-9.4514 1.2579-4.6722 2.5157-9.166-0.86372-11.817-3.0271-2.3715-6.0589-0.64125-11.618 2.6059-3.0132 1.7602-7.6727 3.0622-11.412 6.4621 0.147-1.354 0.262-2.677 0.334-3.955 0.30825-5.4882-1.4178-9.628-2.3104-12.745-1.5369-5.3664-3.1177-7.6998-5.7316-8.6613-5.0217-1.8473-10.448 2.0855-15.705 7.4451-2.3924 2.4391-4.7497 4.1587-7.0178 7.5499-1.785-14.83-5.724-22.456-11.77-22.702-7.224-0.291-9.355 9.711-11.25 17.26-1.1725 4.6684-0.8706 10.121-1.6163 16.058-0.71143 5.6641-2.4913 11.77-2.7467 18.057-0.524 12.882-1.245 25.087 0.296 34.365 0.411 2.476 0.955 5.217 1.747 7.807-5.075 0.235-10.108 2.73-14.86 4.925-9.656 4.46-16.994 12.413-20.662 22.389-2.6131 7.0948-4.4624 15.997-8.4613 33.627-1.2164 5.363-3.7933 11.534-5.1807 18.707zm74.306-18.171c0.34285-0.32715 0.68873-1.9333 1.0375-2.2583 3.4493-3.2149 7.178-5.0438 11.021-8.0017-3.3318 5.4967-4.8563 11.455-6.8025 17.741-1.8629 6.0163-4.2195 12.332-4.2195 18.829 0 0.684 0.025 1.365 0.039 2.048h-15.118c3.3372-6.4121 5.0731-12.391 7.6662-17.681 1.9532-3.9852 4.9466-7.5803 6.3768-10.677zm73.993 12.586-7.2053 1.28-11.1-1.28v10l8.4355-1.28 8.4355 1.28c-4e-3 1.946 0.137 3.874 0.438 5.772h-33.693c-7e-3 -0.683-0.018-1.364-0.018-2.048 0-13.083 0.75719-24.94 3.4586-34.715 2.0713-7.4957 5.8131-13.768 8.0464-18.431v1.44h0.01l-1e-3 -1.458c1.585-3.308 3.057-5.815 4.189-7.359 1.7928 2.3512 5.7372 7.0626 8.3786 13.928 1.8714 4.8642 2.4512 10.81 3.9814 17.764l9.767-2.148c-1.939-8.815-4.701-17.331-7.886-24.416 7.942 4.581 17.732 10.682 27.013 17.683-4.6291 1.7274-7.5949 4.3952-11.186 7.8434-2.1944 2.1072-5.4242 4.506-7.0673 7.1596-1.746 2.808-3.081 5.836-3.997 8.985zm-62.918 15.772c-0.016-0.683-0.039-1.363-0.039-2.048 0-6.563 1.2994-14.011 3.2932-19.612 4.0193-11.291 10.861-18.998 15.57-24.274 3.433-3.847 6.832-7.016 9.984-9.567-0.634 1.505-1.23 3.01-1.782 4.476-1.987 5.2778-3.5065 13.924-5.4137 24.841-1.2526 7.1697-3.4003 15.319-3.4003 24.136 0 0.684 0.011 1.365 0.018 2.048zm291.09 10.276c0 23.012-5.9797 45.74-16.467 64.303-16.52 29.242-44.226 48.762-77.363 58.512-11.685 3.4381-24.128 7.5865-36.829 6.5634l-15.89-1.28-80.564 1.28-26.019 1.28c-2.5876 0.1273-5.1531 1.2266-7.6864 1.1184-26.254-1.1216-49.383-9.4131-68.494-23.93-5.3409-4.057-10.368-9.897-15.062-14.953-10.104-10.883-19.699-26.134-25.818-40.135-2.7077-6.1959-6.2419-12.648-8.0012-19.314-1.4293-5.4152-3.8-10.971-4.5275-16.645-0.3807-2.969-0.66195-5.9702-0.8402-9.0002-0.152-2.581-0.229-5.205-0.229-7.799v-0.276l9.7676-1.5542 16.53 0.90153 23.999 1.7968 19.664-1.3331 31.468-1.9407 17.566 1.1328 55.728-0.46682 26.866 1.055 43.911-1.6478 30.994-0.25964 65.067 1.0362 42.229 1.28v0.276zm-142.44-16.001c0-5.1571 1.5965-11.228 4.3215-15.186 4.4385-6.4458 11.871-9.3995 20.274-9.3995 3.626 0 7.0712-0.491 10.173 0.92431 4.2903 1.9577 9.2034 4.1602 11.749 8.4073 2.4945 4.1621 2.6643 10.338 2.6643 15.253 0 1.947-0.251 3.858-0.697 5.725h-47.785c-0.449-1.862-0.7-3.773-0.7-5.725zm-4.186-33.475c2.75-1.214 5.438-2.546 7.978-3.954 6.289-3.467 13.429-5.3 20.647-5.3 3.9555 0 7.8259-0.7477 11.531 0.28324 7.1035 1.9765 13.599 7.0659 18.922 12.471 3.7469 3.8052 7.9736 8.1813 10.04 12.929 2.399 5.5107 2.3327 11.522 2.2365 17.723-0.027 1.698-0.165 3.385-0.389 5.048h-8.08c0.313-1.882 0.48-3.792 0.48-5.725 0-4.273-2.059-8.2159-3.4825-11.798-2.7115-6.8241-6.4812-12.341-12.939-16.342-5.2823-3.2731-11.507-6.4441-18.164-6.4441-4.4585 0-8.7227 2.1275-12.64 3.6698-6.0222 2.3712-11.224 7.3831-15.051 12.185-4.3344 5.4385-6.9048 10.97-6.9048 18.73 0 1.935 0.167 3.845 0.481 5.725h-67.029c-0.471-2.116-0.681-4.292-0.615-6.502 0.136-4.581 1.492-9.067 3.926-12.983 2.3224-3.751 5.4802-8.0807 9.1438-10.233 3.5913-2.1103 7.6685-2.0786 11.921-2.2805 1.389-0.066 2.765-0.028 4.091 0.112 8.5186 0.89597 17.3-0.89874 26.008-2.7689 6.0357-1.2963 12.036-1.9638 17.889-4.5441zm-91.975-52.655c0.844-0.844 1.739-1.495 2.627-1.997-1.104 7.384-1.713 14.829-1.832 22.257-1.779-0.942-3.283-1.717-4.462-2.314l1.28-4.546-1.28-4.546c-0.90659-3.2198 1.302-6.489 3.667-8.854zm-19.962-1.997c0.888 0.502 1.783 1.153 2.627 1.997 2.365 2.365 3.667 5.509 3.667 8.854v9.091c-1.179 0.596-2.688 1.374-4.462 2.313-0.118-7.427-0.727-14.871-1.832-22.255zm-7.42-57.637c-1.868 5.882-8.187 18.215-20.645 34.118-3.06 3.906-5.997 7.396-8.768 10.494 2.425-4.853 4.638-10.01 6.542-15.185 1.521-4.131 2.826-8.24 3.934-12.257 1.76-1.9525 4.4525-3.9798 5.7424-5.8647 1.5919-2.3263 1.7171-4.4356 3.3584-5.9194 3.6471-3.2973 7.8111-4.1548 9.8363-5.3859zm-26.541-16.673c1.7227 1.6422 1.6796 12.244-2.8698 29.612-1.0466 3.9956-1.1195 8.3492-2.8432 13.034-4.1735 11.342-7.4633 21.077-11.486 26.949-4.8624 7.0974-10.206 9.1417-11.805 9.2315-2.119-2.02-3.504-17.597 5.713-42.647 0.93129-2.5309 0.60231-4.918 1.5626-7.1647 4.8221-11.282 10.285-20.304 14.602-24.935 3.3325-3.5748 5.982-4.0155 7.1264-4.0798zm-37.931 34.663c0.28484-7.0198-0.42438-13.23 0.2995-18.583 1.3575-10.039 4.5334-17.067 6.0915-20.778 0.45957 1.3886 2.2248 3.2505 2.6797 5.6175 0.92095 4.7921 0.43743 11.655 0.64427 20.853l0.055-1e-3c-1.639 3.573-3.155 7.26-4.515 10.955-2.134 5.8-3.96 11.837-5.317 17.71-0.169-4.702-0.175-9.965 0.062-15.773z"/>

<rect transform="matrix(-.9385 -.3453 .3453 -.9385 89.303 479.62)" x="80.33" y="226.85" width="14.076" height="10"/>

<path d="m450.38 262.35c-3.604 2.595-8.002 3.63-12.387 2.919l-1.604 9.87c1.446 0.235 2.894 0.352 4.33 0.352 3.3003 0 6.5464-1.8933 9.6004-3.087 2.0707-0.80931 4.0532-0.60541 5.9046-1.938 4.1937-3.0201 6.0703-7.0964 7.9211-11.793 0.69611-1.7664 2.4875-3.6205 2.7999-5.5392 0.41058-2.5261-0.82166-5.0553-1.1224-7.5271-0.53496-4.3975-0.89277-8.6135-3.5526-12.308l-8.115 5.844c2.596 3.604 4.912 8.003 4.199 12.386-0.714 4.382-4.371 8.225-7.974 10.821z"/>

<path d="m364.22 166.19 2.764-9.611c-6.3597-1.8271-12.888 0.68464-18.003 4.1014-4.1037 2.7412-7.2977 5.6089-8.7649 10.712-1.473 5.1249 0.32066 10.358 2.3632 14.873 2.5265 5.585 6.1122 10.071 12.451 11.894l2.762-9.611c-2.3874-0.68632-4.386-0.79545-5.8359-2.5982-2.2936-2.8517-3.2142-8.0182-2.1291-11.795 1.288-4.4803 5.051-8.8717 9.3776-9.5568 1.626-0.25747 3.3316 1.1077 5.0154 1.5918z"/>







</g>

<g fill="#e4983c" fill-opacity=".38824" stroke="#e4983c" stroke-opacity=".38819">

<path d="m44.789 71.222c0.75932 5.3365 2.4549 6.3443 10.24 6.3607-8.333 1.877-8.8261 4.2405-10.24 14.77-1.5477-10.529-1.7901-12.895-10.24-14.77 8.1923 0 9.3983-1.0021 10.24-6.3607z" stroke-width=".64"/><g stroke-width=".64"><path d="m100.3 25.944c0.88209 10.403 2.1033 12.365 11.896 12.4-10.213 0-11.176 8.193-11.896 28.793-0.60382-20.623-1.7522-26.723-11.896-28.793 10.562 0 10.918-1.9536 11.896-12.4z"/><path d="m193.44 19.288c1.3762 13.77 4.4493 16.37 18.559 16.412-15.103 4.8431-18.559 6.0519-18.559 38.11 0-32.09-3.2444-33.271-18.559-38.11 14.848 0 17.034-2.5857 18.559-16.412z"/><path d="m45.105 107.62c1.3762 10.474 4.1329 15.3 18.243 15.332-15.103 3.6839-18.317 8.2197-18.559 28.989 0.29952-20.783-3.2443-25.308-18.559-28.989 14.848 0 17.35-4.8146 18.875-15.332z"/></g></g><path d="m51.082 221.88 8.5436 101.55s28.555 123.57 44.472 129c15.917 5.4347 44.631 13.129 44.631 13.129l52.8-17.139 216.82-38.002-10.184-84.369-20.488-150.31-277.1-54.939-45.356 43.526z" fill="url(#radialGradient56237)" fill-rule="evenodd" stroke-miterlimit="58.8" stroke-width="0" style="paint-order:stroke fill markers"/></svg>
