<?xml version="1.0" encoding="UTF-8"?>
<!-- Created with Inkscape (http://www.inkscape.org/) -->
<svg width="210mm" height="297mm" version="1.1" viewBox="0 0 210 297" xmlns="http://www.w3.org/2000/svg">
 <defs>
  <radialGradient id="radialGradient56237" cx="117.58" cy="167.12" r="74.993" gradientTransform="matrix(.26979 .96037 -1.12 .31465 273.04 1.6218)" gradientUnits="userSpaceOnUse">
   <stop stop-color="#e9a82f" stop-opacity=".6" offset="0"/>
   <stop stop-color="#e9a82f" stop-opacity="0" offset="1"/>
  </radialGradient>
 </defs>
 <g stroke-miterlimit="58.8">
  <path d="m102.35 57.072c-7.547 0-13.313 3.2004-18.127 8.313-4.4481 4.7241-8.2383 11.081-8.2383 18.054 0 2.4305 0.33188 4.7861 0.95263 7.0238 1.3221 4.766 3.8577 8.9971 7.2743 12.277 4.5625 4.3806 10.696 7.0659 17.609 7.0659 4.9801 0 9.1789-1.9228 13.242-4.3398 7.783-4.6302 13.655-12.487 13.655-22.027 0-7.4783-3.6716-13.718-8.7031-18.525-4.738-4.5264-10.622-7.842-17.664-7.842zm0 7c5.2768 0 9.5156 2.6135 13 6.008 3.6059 3.5126 6.3669 7.8988 6.3669 13.359 0 2.1456 0.11363 4.1362-0.61347 5.9716-1.259 3.178-3.9812 5.8907-6.5687 8.1375-3.3961 2.949-7.3087 5.2582-12.185 5.2582-2.1348 0-3.5757-0.30046-5.3749-0.87268-4.689-1.4913-8.7467-4.8285-11.007-9.5035-1.2343-2.5533-2.9837-5.9524-2.9837-8.991 0-1.7931 0.76979-3.5274 1.2207-5.1726 2.249-8.2063 9.2004-14.195 18.145-14.195z" color="#000000" fill="#8c8c8c" fill-rule="evenodd" stroke-linecap="square" stroke-linejoin="round" style="-inkscape-stroke:none;paint-order:stroke fill markers"/>
  <path d="m75.5 125.71c2.394-3.2316 7.292-4.5599 11.472-4.9815l16.716 0.67442 10.815-0.43519c4.0794-0.16416 7.6894 1.2222 10.729 3.528 2.1449 1.627 5.372 4.8734 6.5147 8.004l3.9686 12.978 5.2093 10.717 3.796 11.85 9.976 11.664 6.0128 8.0775 6.4847 7.1178c3.1736 3.4835 8.3459 12.334 4.871 17.638s-9.6957 5.273-12.778 1.2523l-5.6999-8.8463-5.0487-5.5054-4.9457-6.132-5.3294-6.247-3.5197-5.2809-5.812-14.102-5.2739-8.6529-2.0025 15.862-2.0025 9.2312-2.1367 8.7127-0.6139 13.479-1.6894 8.9185 5.0379 7.0928 5.4506 5.051 8.1921 3.7042 5.8475 3.7448 8.315 3.9145 14.352 5.8769 8.0583 5.6125c2.133 1.1766 2.8741 4.7377 3.1504 8.6363 0.41595 5.8688-3.8382 9.8165-8.0433 9.6115l-12.48 0.97862-10.165-0.10733-10.567-1.3923-3.6331-0.0213-9.185-0.5829-9.1321-0.5826-9.3912-1.5749-9.0908 1.6609-11.717 1.1917-12.66 1.0421-13.671-0.58143-8.8024 1.227-8.878-0.91251c-5.4957-0.34031-7.1741-5.0667-7.1785-10.538-0.0034-4.1855 1.2799-7.1 5.6501-9.2425l5.737-4.3054 6.6881-3.4811 8.9225-3.4783 8.9148-5.8647 9.3489-4.9537 4.4569-4.6028 3.7497-6.5116 0.42387-6.5017-1.4052-8.5287-0.38564-7.5685-1.3029-11.649 0.13962-9.0655-1.1094-13.502-8.5882 11.103-4.1303 7.6509-9.9887 12.253-7.3078 7.8972-8.5379 12.75c-3.356 4.1677-9.0171 0.28042-10.807-2.7831s-1.5457-8 4.0516-14.994l7.8348-9.2632 5.274-8.3075 10.136-11.475 8.1616-17.017 3.2956-9.3219s4.7774-8.4635 7.2577-11.812z" fill="none" stroke="#8c8c8c" stroke-linecap="square" stroke-linejoin="round" stroke-width="7" style="paint-order:stroke fill markers"/>
  <path d="m169.05 125.13-43.821-0.63732s-54.037 6.6978-56.99 13.026-7.3764 17.83-7.3764 17.83l5.2641 22.43 7.7508 90.785 36.529-0.74042 10.908-93.094 88.681-20.98-16.856-20.446z" fill="url(#radialGradient56237)" fill-rule="evenodd" stroke-width="0" style="paint-order:stroke fill markers"/>
 </g>
 <g fill="#7ea692" fill-opacity=".29039" stroke="#7ea692" stroke-opacity=".56851" stroke-width=".26458">
  <path d="m22.246 30.497c0.31391 2.2062 1.0149 2.6228 4.2333 2.6296-3.445 0.77596-3.6488 1.7531-4.2333 6.106-0.63985-4.3529-0.74004-5.3307-4.2333-6.106 3.3868 0 3.8854-0.41428 4.2333-2.6296z"/>
  <path d="m45.196 11.779c0.36467 4.3009 0.86952 5.112 4.9178 5.1263-4.2222 0-4.6204 3.3871-4.9178 11.903-0.24963-8.526-0.72436-11.048-4.9178-11.903 4.3666 0 4.5136-0.80762 4.9178-5.1263z"/>
  <path d="m83.701 9.0269c0.56893 5.6925 1.8394 6.7676 7.6725 6.785-6.2437 2.0022-7.6725 2.5019-7.6725 15.755 0-13.266-1.3413-13.755-7.6725-15.755 6.1383 0 7.0419-1.0689 7.6725-6.785z"/>
  <path d="m22.377 45.542c0.56893 4.3301 1.7086 6.3252 7.5417 6.3384-6.2437 1.523-7.5725 3.3981-7.6725 11.984 0.12382-8.5918-1.3412-10.463-7.6725-11.984 6.1383 0 7.1727-1.9904 7.8033-6.3384z"/>
 </g>
</svg>
