<?xml version="1.0" encoding="UTF-8" standalone="no"?>
<!-- Created with Inkscape (http://www.inkscape.org/) -->

<svg
   width="191.39598mm"
   height="191.39598mm"
   viewBox="0 0 191.39598 191.39598"
   version="1.1"
   id="svg26006"
   xmlnsInkscape="http://www.inkscape.org/namespaces/inkscape"
   xmlnsSodipodi="http://sodipodi.sourceforge.net/DTD/sodipodi-0.dtd"
   xmlns="http://www.w3.org/2000/svg"
   xmlnsSvg="http://www.w3.org/2000/svg">
  <sodipodiNamedview
     id="namedview26008"
     pagecolor="#ffffff"
     bordercolor="#000000"
     borderopacity="0.25"
     inkscapeShowpageshadow="2"
     inkscapePageopacity="0.0"
     inkscapePagecheckerboard="0"
     inkscapeDeskcolor="#d1d1d1"
     inkscapeDocument-units="mm"
     showgrid="false"
     inkscapeZoom="0.38204804"
     inkscapeCx="138.72601"
     inkscapeCy="246.04235"
     inkscapeWindow-width="1309"
     inkscapeWindow-height="456"
     inkscapeWindow-x="0"
     inkscapeWindow-y="25"
     inkscapeWindow-maximized="0"
     inkscapeWurrent-layer="layer1" />
  <defs
     id="defs26003" />
  <g
     inkscapeLabel="Layer 1"
     inkscapeGroupmode="layer"
     id="layer1">
    <path
       style="color:#000000;opacity:1;fill:#fcfc03;fill-opacity:1;stroke:#92a454;stroke-width:2.07599;stroke-linejoin:round;stroke-dasharray:none;stroke-opacity:1"
       d="m 95.699257,190.35799 c 52.213683,0 94.658743,-42.44732 94.658743,-94.661066 0,-52.213776 -42.44506,-94.658929 -94.658743,-94.658929 -52.213657,0 -94.6608999,42.445153 -94.6608999,94.658929 0,52.213746 42.4472429,94.661066 94.6608999,94.661066 z m 0,-11.03796 c -46.248351,0 -83.62298,-37.37469 -83.62298,-83.623106 0,-46.248416 37.374629,-83.620994 83.62298,-83.620994 46.248323,0 83.620823,37.372578 83.620823,83.620994 0,46.248416 -37.3725,83.623106 -83.620823,83.623106 z"
       id="path874-0-6" />
    <path
       style="color:#000000;opacity:1;fill:#fcfc03;fill-opacity:1;stroke:#a0a454;stroke-width:2.07599;stroke-linejoin:round;stroke-dasharray:none;stroke-opacity:1"
       d="m 95.697982,113.949 c 10.014698,0 18.251188,-8.23806 18.251188,-18.252079 0,-10.013978 -8.23649,-18.249924 -18.251188,-18.249924 -10.014673,0 -18.251158,8.235946 -18.251158,18.249924 0,10.014019 8.236485,18.252079 18.251158,18.252079 z m 0,-11.02402 c -4.05646,0 -7.226383,-3.171862 -7.226383,-7.228059 0,-4.056168 3.169923,-7.225895 7.226383,-7.225895 4.05647,0 7.226408,3.169727 7.226408,7.225895 0,4.056197 -3.169938,7.228059 -7.226408,7.228059 z"
       id="path874-9-4-3" />
  </g>
</svg>
