<?xml version="1.0" encoding="UTF-8" standalone="no"?>
<!-- Created with Inkscape (http://www.inkscape.org/) -->

<svg
   width="1050mm"
   height="105mm"
   viewBox="0 0 1050 105"
   version="1.1"
   id="svg28870"
   xmlns="http://www.w3.org/2000/svg"
   xmlnsSvg="http://www.w3.org/2000/svg">
  <defs
     id="defs28867" />
  <g
     id="layer1">
    <path
       d="m 70.258394,67.61917 q -1.8871,2.77984 -4.7178,5.25081 -2.7259,2.47097 -6.2905,4.32419 -3.5646,1.75027 -7.7583,2.77984 -4.0888,1.02957 -8.7018,1.02957 -8.2825,0 -15.4117,-2.8828 Q 20.35389,75.23799 15.11179,70.1931 9.97459,65.04525 7.03899,58.04417 q -2.9356,-7.00108 -2.9356,-15.3406 0,-8.33951 2.9356,-15.34059 2.9356,-7.00108 8.0728,-12.04597 5.2421,-5.14785 12.266504,-8.03065 7.1292,-2.8828 15.4117,-2.8828 6.9195,0 13.839,2.67688 6.9196,2.67689 11.8471,8.85431 l -6.605,4.83898 q -1.1532,-1.75027 -3.1452,-3.50054 -1.992,-1.75027 -4.6131,-3.08871 -2.5162,-1.33844 -5.4517,-2.1621 -2.9356,-0.82365 -5.8711,-0.82365 -7.1293,0 -12.7907,2.57393 -5.661504,2.57392 -9.645404,6.89811 -3.8792,4.32419 -5.976,10.08979 -2.0968,5.66264 -2.0968,11.94301 0,6.28038 2.0968,12.04598 2.0968,5.66263 5.976,9.98682 3.9839,4.32419 9.645404,6.89813 5.6614,2.57392 12.7907,2.57392 2.9355,0 5.7662,-0.51478 2.9356,-0.51479 5.6615,-1.75028 2.8307,-1.23548 5.2421,-3.29462 2.5162,-2.1621 4.613,-5.35377 z"
       style="font-size:103.895px;font-family:Avenir;-inkscape-font-specification:Avenir;fill:#ffffff;fill-opacity:1;stroke:#fdfd81;stroke-width:0.6;stroke-linejoin:round;stroke-dasharray:none;stroke-opacity:1"
       id="path51067-7" />
    <path
       d="m 80.427894,1.31485 h 6.9196 v 37.3734 h 0.2096 q 1.1533,-1.95619 2.9356,-3.6035 1.7823,-1.64731 3.984,-2.77983 2.2017,-1.23549 4.613,-1.85323 2.516196,-0.7207 4.927596,-0.7207 9.4357,0 13.9439,4.94193 4.5082,4.83899 4.5082,13.8992 v 30.57823 h -6.9196 V 52.48449 q 0,-8.03065 -2.8307,-12.25189 -2.8307,-4.32419 -10.4841,-4.32419 -0.5243,0 -2.935596,0.41183 -2.4114,0.41182 -5.1372,2.26505 -2.6211,1.85323 -4.7179,5.55968 -2.0968,3.70645 -2.0968,10.2957 v 24.70968 h -6.9196 z"
       style="font-size:103.895px;font-family:Avenir;-inkscape-font-specification:Avenir;fill:#ffffff;fill-opacity:1;stroke:#fdfd81;stroke-width:0.6;stroke-linejoin:round;stroke-dasharray:none;stroke-opacity:1"
       id="path51069-0" />
    <path
       d="m 180.76129,55.05841 q 0,-4.01532 -1.363,-7.51586 -1.2581,-3.50053 -3.6694,-6.07446 -2.4114,-2.57392 -5.8712,-4.01532 -3.3549,-1.54436 -7.6534,-1.54436 -4.2985,0 -7.7583,1.54436 -3.3549,1.4414 -5.7663,4.01532 -2.3065,2.57393 -3.6694,6.07446 -1.2581,3.50054 -1.2581,7.51586 0,4.01533 1.2581,7.51587 1.3629,3.50054 3.6694,6.07446 2.4114,2.57393 5.7663,4.11828 3.4598,1.4414 7.7583,1.4414 4.2985,0 7.6534,-1.4414 3.4598,-1.54435 5.8712,-4.11828 2.4113,-2.57392 3.6694,-6.07446 1.363,-3.50054 1.363,-7.51587 z m 7.5485,0 q 0,5.45673 -1.9919,10.08979 -1.8872,4.63307 -5.347,8.03065 -3.4597,3.39758 -8.2824,5.35376 -4.7179,1.85323 -10.4842,1.85323 -5.6614,0 -10.4842,-1.85323 -4.7178,-1.95618 -8.1776,-5.35376 -3.4598,-3.39758 -5.4518,-8.03065 -1.8871,-4.63306 -1.8871,-10.08979 0,-5.45671 1.8871,-10.08979 1.992,-4.63306 5.4518,-8.03064 3.4598,-3.39758 8.1776,-5.2508 4.8228,-1.95619 10.4842,-1.95619 5.7663,0 10.4842,1.95619 4.8227,1.85322 8.2824,5.2508 3.4598,3.39758 5.347,8.03064 1.9919,4.63308 1.9919,10.08979 z"
       style="font-size:103.895px;font-family:Avenir;-inkscape-font-specification:Avenir;fill:#ffffff;fill-opacity:1;stroke:#fdfd81;stroke-width:0.6;stroke-linejoin:round;stroke-dasharray:none;stroke-opacity:1"
       id="path51071-8" />
    <path
       d="m 242.93209,55.05841 q 0,-4.01532 -1.3629,-7.51586 -1.2581,-3.50053 -3.6695,-6.07446 -2.4113,-2.57392 -5.8711,-4.01532 -3.3549,-1.54436 -7.6534,-1.54436 -4.2985,0 -7.7583,1.54436 -3.3549,1.4414 -5.7663,4.01532 -2.3065,2.57393 -3.6694,6.07446 -1.2581,3.50054 -1.2581,7.51586 0,4.01533 1.2581,7.51587 1.3629,3.50054 3.6694,6.07446 2.4114,2.57393 5.7663,4.11828 3.4598,1.4414 7.7583,1.4414 4.2985,0 7.6534,-1.4414 3.4598,-1.54435 5.8711,-4.11828 2.4114,-2.57392 3.6695,-6.07446 1.3629,-3.50054 1.3629,-7.51587 z m 7.5486,0 q 0,5.45673 -1.992,10.08979 -1.8871,4.63307 -5.3469,8.03065 -3.4598,3.39758 -8.2825,5.35376 -4.7178,1.85323 -10.4841,1.85323 -5.6615,0 -10.4842,-1.85323 -4.7179,-1.95618 -8.1776,-5.35376 -3.4598,-3.39758 -5.4518,-8.03065 -1.8871,-4.63306 -1.8871,-10.08979 0,-5.45671 1.8871,-10.08979 1.992,-4.63306 5.4518,-8.03064 3.4597,-3.39758 8.1776,-5.2508 4.8227,-1.95619 10.4842,-1.95619 5.7663,0 10.4841,1.95619 4.8227,1.85322 8.2825,5.2508 3.4598,3.39758 5.3469,8.03064 1.992,4.63308 1.992,10.08979 z"
       style="font-size:103.895px;font-family:Avenir;-inkscape-font-specification:Avenir;fill:#ffffff;fill-opacity:1;stroke:#fdfd81;stroke-width:0.6;stroke-linejoin:round;stroke-dasharray:none;stroke-opacity:1"
       id="path51073-5" />
    <path
       d="m 289.06219,42.3947 q -1.5726,-2.98575 -4.1936,-4.73602 -2.6211,-1.75027 -6.3954,-1.75027 -1.7823,0 -3.6694,0.41183 -1.7823,0.41182 -3.2501,1.33844 -1.4678,0.82366 -2.4114,2.16209 -0.8387,1.33845 -0.8387,3.29463 0,3.39758 2.4114,4.94193 2.4113,1.54437 7.234,2.67689 l 7.0244,1.64731 q 5.1373,1.13253 8.4922,4.63307 3.4597,3.39758 3.4597,8.54543 0,3.91236 -1.6774,6.79516 -1.5726,2.77984 -4.2985,4.63307 -2.6211,1.75026 -6.0808,2.57392 -3.4598,0.82366 -7.0244,0.82366 -5.6615,0 -10.589,-2.05914 -4.8227,-2.1621 -8.2825,-7.30995 l 5.976,-4.01533 q 2.0968,3.29463 5.2421,5.25082 3.25,1.95618 7.6534,1.95618 2.0968,0 4.1936,-0.41183 2.0969,-0.51478 3.6695,-1.4414 1.6775,-1.02957 2.621,-2.57392 1.0485,-1.54436 1.0485,-3.6035 0,-3.60349 -2.7259,-5.14785 -2.7259,-1.64731 -6.605,-2.57392 l -6.7099,-1.54436 q -1.2581,-0.30887 -3.4598,-1.02957 -2.0968,-0.7207 -4.1936,-2.16209 -1.992,-1.4414 -3.4598,-3.70646 -1.4678,-2.36801 -1.4678,-5.76559 0,-3.70645 1.4678,-6.4863 1.5726,-2.77983 4.0888,-4.5301 2.6211,-1.75027 5.8711,-2.57392 3.2501,-0.92662 6.7099,-0.92662 5.1372,0 9.5406,1.95619 4.4033,1.95617 6.8147,6.6922 z"
       style="font-size:103.895px;font-family:Avenir;-inkscape-font-specification:Avenir;fill:#ffffff;fill-opacity:1;stroke:#fdfd81;stroke-width:0.6;stroke-linejoin:round;stroke-dasharray:none;stroke-opacity:1"
       id="path51075-3" />
    <path
       d="m 345.88619,51.35196 q 0,-6.89812 -4.1937,-11.11936 -4.1936,-4.32419 -11.7422,-4.32419 -3.3549,0 -6.5002,1.33844 -3.1452,1.23549 -5.5566,3.39758 -2.3065,2.1621 -3.7743,4.94194 -1.3629,2.77984 -1.3629,5.76559 z m -33.3396,5.55968 q 0.3145,3.6035 1.7823,6.79516 1.4678,3.19167 3.8791,5.55968 2.4114,2.26505 5.5566,3.6035 3.1453,1.33844 6.8147,1.33844 5.5566,0 9.5406,-2.47097 4.0888,-2.57392 6.1857,-5.86855 l 5.3469,4.3242 q -4.4034,5.45671 -9.7503,7.82473 -5.2421,2.36801 -11.3229,2.36801 -5.4517,0 -10.1696,-1.85323 -4.613,-1.95618 -7.9679,-5.35376 -3.355,-3.39758 -5.347,-8.03065 -1.8871,-4.63306 -1.8871,-10.08979 0,-5.45671 1.8871,-10.08979 1.8872,-4.63306 5.2421,-8.03064 3.3549,-3.39758 7.8631,-5.2508 4.5082,-1.95619 9.7503,-1.95619 5.5566,0 9.9599,1.95619 4.4034,1.95617 7.3389,5.2508 3.0404,3.19167 4.6131,7.61882 1.5726,4.32419 1.5726,9.26613 v 3.08871 z"
       style="font-size:103.895px;font-family:Avenir;-inkscape-font-specification:Avenir;fill:#ffffff;fill-opacity:1;stroke:#fdfd81;stroke-width:0.6;stroke-linejoin:round;stroke-dasharray:none;stroke-opacity:1"
       id="path51077-7" />
    <path
       d="m 392.33099,79.15035 h -7.5486 V 47.74847 l -27.783,-41.49168 h 9.4357 l 22.1216,34.38764 22.1215,-34.38764 h 9.4358 l -27.783,41.49168 z"
       style="font-size:103.895px;font-family:Avenir;-inkscape-font-specification:Avenir;fill:#ffffff;fill-opacity:1;stroke:#fdfd81;stroke-width:0.6;stroke-linejoin:round;stroke-dasharray:none;stroke-opacity:1"
       id="path51079-9" />
    <path
       d="m 569.19849,51.9697 q 0,4.53011 -1.1532,9.67796 -1.0484,5.0449 -4.0888,9.36909 -3.0404,4.3242 -8.3874,7.20699 -5.242,2.77984 -13.5245,2.77984 -8.3873,0 -13.6294,-2.77984 -5.2421,-2.88279 -8.2825,-7.20699 -3.0404,-4.32419 -4.1937,-9.36909 -1.0484,-5.14785 -1.0484,-9.67796 V 6.25679 h 7.5486 v 44.88926 q 0,5.25081 1.0484,9.06021 1.0485,3.70645 2.7259,6.28038 1.7823,2.57392 3.8791,4.11829 2.2017,1.44139 4.2985,2.26505 2.2017,0.82366 4.1937,1.13252 1.992,0.20592 3.4598,0.20592 1.3629,0 3.3549,-0.20592 2.0968,-0.30886 4.1937,-1.13252 2.2016,-0.82366 4.2985,-2.26505 2.2016,-1.54437 3.8791,-4.11829 1.7823,-2.57393 2.8307,-6.28038 1.0484,-3.8094 1.0484,-9.06021 V 6.25679 h 7.5486 z"
       style="font-size:103.895px;font-family:Avenir;-inkscape-font-specification:Avenir;fill:#ffffff;fill-opacity:1;stroke:#fdfd81;stroke-width:0.6;stroke-linejoin:round;stroke-dasharray:none;stroke-opacity:1"
       id="path51081-6" />
    <path
       d="m 678.33839,67.61917 q -1.8871,2.77984 -4.7178,5.25081 -2.7259,2.47097 -6.2905,4.32419 -3.5646,1.75027 -7.7583,2.77984 -4.0888,1.02957 -8.7019,1.02957 -8.2824,0 -15.4117,-2.8828 -7.0243,-2.88279 -12.2664,-7.92768 -5.1373,-5.14785 -8.0728,-12.14893 -2.9356,-7.00108 -2.9356,-15.3406 0,-8.33951 2.9356,-15.34059 2.9355,-7.00108 8.0728,-12.04597 5.2421,-5.14785 12.2664,-8.03065 7.1293,-2.8828 15.4117,-2.8828 6.9196,0 13.8391,2.67688 6.9196,2.67689 11.8471,8.85431 l -6.605,4.83898 q -1.1532,-1.75027 -3.1452,-3.50054 -1.992,-1.75027 -4.6131,-3.08871 -2.5162,-1.33844 -5.4517,-2.1621 -2.9356,-0.82365 -5.8712,-0.82365 -7.1292,0 -12.7906,2.57393 -5.6615,2.57392 -9.6454,6.89811 -3.8792,4.32419 -5.976,10.08979 -2.0968,5.66264 -2.0968,11.94301 0,6.28038 2.0968,12.04598 2.0968,5.66263 5.976,9.98682 3.9839,4.32419 9.6454,6.89813 5.6614,2.57392 12.7906,2.57392 2.9356,0 5.7663,-0.51478 2.9356,-0.51479 5.6615,-1.75028 2.8307,-1.23548 5.2421,-3.29462 2.5162,-2.1621 4.613,-5.35377 z"
       style="font-size:103.895px;font-family:Avenir;-inkscape-font-specification:Avenir;fill:#ffffff;fill-opacity:1;stroke:#fdfd81;stroke-width:0.6;stroke-linejoin:round;stroke-dasharray:none;stroke-opacity:1"
       id="path51083-3" />
    <path
       d="m 730.54939,55.05841 q 0,-4.01532 -1.3629,-7.51586 -1.2581,-3.50053 -3.6695,-6.07446 -2.4114,-2.57392 -5.8711,-4.01532 -3.3549,-1.54436 -7.6534,-1.54436 -4.2986,0 -7.7583,1.54436 -3.3549,1.4414 -5.7663,4.01532 -2.3065,2.57393 -3.6695,6.07446 -1.2581,3.50054 -1.2581,7.51586 0,4.01533 1.2581,7.51587 1.363,3.50054 3.6695,6.07446 2.4113,2.57393 5.7663,4.11828 3.4597,1.4414 7.7583,1.4414 4.2985,0 7.6534,-1.4414 3.4597,-1.54435 5.8711,-4.11828 2.4114,-2.57392 3.6695,-6.07446 1.3629,-3.50054 1.3629,-7.51587 z m 7.5486,0 q 0,5.45673 -1.992,10.08979 -1.8872,4.63307 -5.3469,8.03065 -3.4598,3.39758 -8.2825,5.35376 -4.7179,1.85323 -10.4841,1.85323 -5.6615,0 -10.4842,-1.85323 -4.7179,-1.95618 -8.1776,-5.35376 -3.4598,-3.39758 -5.4518,-8.03065 -1.8871,-4.63306 -1.8871,-10.08979 0,-5.45671 1.8871,-10.08979 1.992,-4.63306 5.4518,-8.03064 3.4597,-3.39758 8.1776,-5.2508 4.8227,-1.95619 10.4842,-1.95619 5.7662,0 10.4841,1.95619 4.8227,1.85322 8.2825,5.2508 3.4597,3.39758 5.3469,8.03064 1.992,4.63308 1.992,10.08979 z"
       style="font-size:103.895px;font-family:Avenir;-inkscape-font-specification:Avenir;fill:#ffffff;fill-opacity:1;stroke:#fdfd81;stroke-width:0.6;stroke-linejoin:round;stroke-dasharray:none;stroke-opacity:1"
       id="path51085-1" />
    <path
       d="m 778.56659,55.16137 q -2.621,0 -6.605,0.30887 -3.8791,0.20591 -7.5486,1.23548 -3.5646,0.92662 -6.1856,2.98576 -2.5162,2.05914 -2.5162,5.66263 0,2.36802 0.9436,4.11828 1.0484,1.64732 2.7258,2.77985 1.6775,1.02957 3.6695,1.54435 2.0968,0.41183 4.1937,0.41183 3.7743,0 6.5001,-1.23549 2.8308,-1.23548 4.7179,-3.29462 1.8871,-2.1621 2.7259,-4.94194 0.9436,-2.8828 0.9436,-6.07446 v -3.50054 z m 3.5647,-5.55967 v -1.23549 q 0,-12.4578 -12.581,-12.4578 -8.597,0 -14.9924,5.66264 l -4.1936,-4.83899 q 6.9195,-7.00107 20.7586,-7.00107 3.5646,0 6.8147,1.02957 3.3549,1.02957 5.7663,3.19167 2.4113,2.05914 3.8791,5.2508 1.4678,3.19167 1.4678,7.61882 v 21.51802 q 0,2.77984 0.2097,5.86855 0.3145,2.98575 0.629,4.94193 h -6.7098 q -0.3145,-1.75026 -0.5242,-3.8094 -0.1049,-2.05914 -0.1049,-4.01533 h -0.2097 q -3.0404,4.83898 -7.234,7.00108 -4.0888,2.05914 -10.0648,2.05914 -3.2501,0 -6.2905,-0.92661 -3.0404,-0.82366 -5.4518,-2.57393 -2.3065,-1.85323 -3.7743,-4.42715 -1.3629,-2.67688 -1.3629,-6.17742 0,-5.86855 3.0404,-9.16318 3.1453,-3.39757 7.7583,-5.04489 4.7178,-1.64731 9.9599,-2.05914 5.3469,-0.41182 9.7503,-0.41182 z"
       style="font-size:103.895px;font-family:Avenir;-inkscape-font-specification:Avenir;fill:#ffffff;fill-opacity:1;stroke:#fdfd81;stroke-width:0.6;stroke-linejoin:round;stroke-dasharray:none;stroke-opacity:1"
       id="path51087-5" />
    <path
       d="m 840.84249,42.29174 q -1.7823,-2.67688 -5.0324,-4.53011 -3.1453,-1.85322 -7.2341,-1.85322 -4.2985,-0.10295 -7.7583,1.33844 -3.3549,1.4414 -5.7663,4.01532 -2.4113,2.57393 -3.6694,6.17742 -1.2581,3.50054 -1.2581,7.61882 0,4.11828 1.2581,7.72178 1.2581,3.50054 3.6694,6.07446 2.4114,2.57393 5.7663,4.01533 3.4598,1.4414 7.7583,1.33844 4.0888,0 7.2341,-1.85323 3.2501,-1.85323 5.0324,-4.53011 l 5.6614,4.22124 q -3.6695,4.22124 -8.2825,6.28038 -4.613,1.95618 -9.6454,2.05914 -5.976,0.10296 -10.7987,-1.75027 -4.8227,-1.95619 -8.2825,-5.35376 -3.3549,-3.39759 -5.1372,-8.03065 -1.7823,-4.73602 -1.7823,-10.19275 0,-5.45671 1.7823,-10.08979 1.7823,-4.73602 5.1372,-8.13359 3.4598,-3.39759 8.2825,-5.25082 4.8227,-1.95617 10.7987,-1.85322 5.0324,0.10296 9.6454,2.1621 4.613,1.95618 8.2825,6.17742 z"
       style="font-size:103.895px;font-family:Avenir;-inkscape-font-specification:Avenir;fill:#ffffff;fill-opacity:1;stroke:#fdfd81;stroke-width:0.6;stroke-linejoin:round;stroke-dasharray:none;stroke-opacity:1"
       id="path51089-8" />
    <path
       d="m 855.62489,1.31485 h 6.9196 v 37.3734 h 0.2097 q 1.1532,-1.95619 2.9355,-3.6035 1.7823,-1.64731 3.984,-2.77983 2.2017,-1.23549 4.613,-1.85323 2.5162,-0.7207 4.9276,-0.7207 9.4357,0 13.9439,4.94193 4.5082,4.83899 4.5082,13.8992 v 30.57823 h -6.9195 V 52.48449 q 0,-8.03065 -2.8308,-12.25189 -2.8307,-4.32419 -10.4841,-4.32419 -0.5242,0 -2.9356,0.41183 -2.4113,0.41182 -5.1372,2.26505 -2.6211,1.85323 -4.7179,5.55968 -2.0968,3.70645 -2.0968,10.2957 v 24.70968 h -6.9196 z"
       style="font-size:103.895px;font-family:Avenir;-inkscape-font-specification:Avenir;fill:#ffffff;fill-opacity:1;stroke:#fdfd81;stroke-width:0.6;stroke-linejoin:round;stroke-dasharray:none;stroke-opacity:1"
       id="path51091-0" />
    <path
       d="m 923.98159,12.43421 q 0,2.1621 -1.5727,3.6035 -1.5726,1.33844 -3.4597,1.33844 -1.8872,0 -3.4598,-1.33844 -1.5726,-1.4414 -1.5726,-3.6035 0,-2.16209 1.5726,-3.50054 1.5726,-1.4414 3.4598,-1.4414 1.8871,0 3.4597,1.4414 1.5727,1.33845 1.5727,3.50054 z m -1.5727,66.71614 h -6.9195 V 30.96647 h 6.9195 z"
       style="font-size:103.895px;font-family:Avenir;-inkscape-font-specification:Avenir;fill:#ffffff;fill-opacity:1;stroke:#fdfd81;stroke-width:0.6;stroke-linejoin:round;stroke-dasharray:none;stroke-opacity:1"
       id="path51093-9" />
    <path
       d="m 945.68368,30.96647 q 0.2097,1.95619 0.2097,3.91237 0.1049,1.85322 0.1049,3.80941 h 0.2097 q 1.1533,-1.95619 2.9356,-3.6035 1.7822,-1.64731 3.9839,-2.77983 2.2017,-1.23549 4.6131,-1.85323 2.5161,-0.7207 4.9275,-0.7207 9.4357,0 13.944,4.94193 4.5082,4.83899 4.5082,13.8992 v 30.57823 h -6.9196 V 52.48449 q 0,-8.03065 -2.8308,-12.25189 -2.8306,-4.32419 -10.4841,-4.32419 -0.5243,0 -2.9355,0.41183 -2.4114,0.41182 -5.1373,2.26505 -2.6211,1.85323 -4.7179,5.55968 -2.0968,3.70645 -2.0968,10.2957 v 24.70968 h -6.9195 v -37.5793 q 0,-1.95619 -0.2097,-4.94194 -0.1048,-2.98576 -0.3145,-5.66264 z"
       style="font-size:103.895px;font-family:Avenir;-inkscape-font-specification:Avenir;fill:#ffffff;fill-opacity:1;stroke:#fdfd81;stroke-width:0.6;stroke-linejoin:round;stroke-dasharray:none;stroke-opacity:1"
       id="path51095-2" />
    <path
       d="m 1002.403,54.44067 q 0,3.80941 1.3629,7.20699 1.4678,3.29462 3.8791,5.86855 2.5162,2.47097 5.7664,4.01532 3.3549,1.4414 7.234,1.4414 3.7743,0 7.1293,-1.33843 3.4597,-1.33845 6.0808,-3.70646 2.621,-2.47097 3.9839,-5.86855 1.4678,-3.39758 1.3629,-7.61882 0,-3.8094 -1.258,-7.10403 -1.2582,-3.39759 -3.6695,-5.86855 -2.4113,-2.57392 -5.8712,-4.01532 -3.4597,-1.54436 -7.7582,-1.54436 -3.8791,0 -7.234,1.54436 -3.2502,1.4414 -5.7664,4.01532 -2.4113,2.47096 -3.8791,5.86855 -1.3629,3.29463 -1.3629,7.10403 z m -1.2582,34.38764 q 3.0405,4.01533 7.8632,6.38334 4.9275,2.47096 10.9035,2.47096 5.2421,0 8.9115,-1.54435 3.6695,-1.44139 5.8711,-4.01532 2.3066,-2.57393 3.2502,-6.07446 1.0483,-3.39759 1.0483,-7.30996 v -8.64838 h -0.2097 q -3.3548,4.94193 -8.1776,7.00107 -4.8226,2.05914 -10.1696,2.05914 -5.3469,0 -10.0648,-1.85322 -4.613,-1.85323 -8.0727,-5.04489 -3.45982,-3.29463 -5.45192,-7.82474 -1.992,-4.5301 -1.992,-9.78092 0,-5.2508 1.8873,-9.78091 1.8871,-4.53011 5.13722,-7.92769 3.3549,-3.39758 7.8631,-5.2508 4.613,-1.95619 10.0648,-1.95619 2.2016,0 4.613,0.41183 2.5162,0.41182 4.9276,1.44139 2.5162,1.02957 4.9275,2.8828 2.4113,1.75027 4.5081,4.53011 h 0.2097 v -8.03065 h 6.9196 v 47.77205 q 0,3.91237 -1.0484,8.33953 -0.9436,4.42714 -3.8792,8.1336 -2.8306,3.70645 -7.9679,6.17742 -5.1372,2.47096 -13.4197,2.47096 -7.3389,0 -13.1052,-2.368 -5.7662,-2.36802 -10.48412,-7.30995 z"
       style="font-size:103.895px;font-family:Avenir;-inkscape-font-specification:Avenir;fill:#ffffff;fill-opacity:1;stroke:#fdfd81;stroke-width:0.6;stroke-linejoin:round;stroke-dasharray:none;stroke-opacity:1"
       id="path51097-4" />
    <path
       style="color:#000000;fill:#ffffff;fill-opacity:1;stroke:#fdfd81;stroke-width:2.076;stroke-linejoin:round;stroke-opacity:1;-inkscape-stroke:none"
       d="m 463.01833,50.28041 c 4.54748,0 8.288,-3.3987 8.288,-7.5294 0,-4.13068 -3.74065,-7.5286 -8.288,-7.5286 -4.54734,0 -8.288,3.39792 -8.288,7.5286 0,4.1307 3.74053,7.5294 8.288,7.5294 z m 0,-1.58472 c -3.59074,0 -6.54343,-2.68283 -6.54343,-5.94468 0,-3.26185 2.95257,-5.94388 6.54343,-5.94388 3.59087,0 6.54343,2.68203 6.54343,5.94388 0,3.26185 -2.95267,5.94468 -6.54343,5.94468 z m 0,-2.48437 c 2.10291,0 3.80848,-1.55036 3.80848,-3.46031 0,-1.90995 -1.70587,-3.45951 -3.80848,-3.45951 -2.10259,0 -3.80847,1.54956 -3.80847,3.45951 0,1.90995 1.70556,3.46031 3.80847,3.46031 z m 0,-1.58472 c -1.19348,0 -2.0639,-0.79118 -2.0639,-1.87559 0,-1.0844 0.87011,-1.8748 2.0639,-1.8748 1.1938,0 2.06391,0.7904 2.06391,1.8748 0,1.08441 -0.87042,1.87559 -2.06391,1.87559 z"
       id="path33493" />
    <path
       d="m 70.242824,67.44429 q -1.88715,2.77984 -4.71787,5.25081 -2.72588,2.47097 -6.29049,4.32419 -3.56461,1.75027 -7.75827,2.77984 -4.08883,1.02957 -8.70186,1.02957 -8.28247,0 -15.4117,-2.8828 Q 20.338254,75.06311 15.096177,70.01822 9.958942,64.87037 7.023379,57.86929 4.087816,50.86821 4.087816,42.52869 q 0,-8.33951 2.935563,-15.34059 2.935563,-7.00108 8.072798,-12.04597 5.242077,-5.14785 12.266457,-8.03065 7.12923,-2.8828 15.4117,-2.8828 6.91954,0 13.83909,2.67688 6.91954,2.67689 11.84709,8.85431 l -6.60502,4.83898 q -1.15325,-1.75027 -3.14524,-3.50054 -1.99199,-1.75027 -4.61303,-3.08871 -2.5162,-1.33844 -5.45176,-2.1621 -2.93556,-0.82365 -5.87113,-0.82365 -7.12922,0 -12.79066,2.57393 -5.661442,2.57392 -9.64542,6.89811 -3.879137,4.32419 -5.975968,10.08979 -2.096831,5.66264 -2.096831,11.94301 0,6.28038 2.096831,12.04598 2.096831,5.66263 5.975968,9.98682 3.983978,4.32419 9.64542,6.89813 5.66144,2.57392 12.79066,2.57392 2.93557,0 5.76629,-0.51478 2.93557,-0.51479 5.66145,-1.75028 2.83071,-1.23548 5.24207,-3.29462 2.5162,-2.1621 4.61303,-5.35377 z"
       style="font-size:103.895px;font-family:Avenir;-inkscape-font-specification:Avenir;fill:#fcfc03;fill-opacity:1;stroke:#fdfd81;stroke-width:0.6;stroke-linejoin:round;stroke-dasharray:none;stroke-opacity:1"
       id="path51067" />
    <path
       d="m 80.412304,1.13997 h 6.91954 v 37.3734 h 0.20968 q 1.15325,-1.95619 2.93557,-3.6035 1.7823,-1.64731 3.98397,-2.77983 2.20167,-1.23549 4.61303,-1.85323 2.516196,-0.7207 4.927546,-0.7207 9.43574,0 13.94393,4.94193 4.50818,4.83899 4.50818,13.8992 v 30.57823 h -6.91954 V 52.30961 q 0,-8.03065 -2.83072,-12.25189 -2.83073,-4.32419 -10.48415,-4.32419 -0.52422,0 -2.935566,0.41183 -2.41136,0.41182 -5.13724,2.26505 -2.62103,1.85323 -4.71786,5.55968 -2.09683,3.70645 -2.09683,10.2957 v 24.70968 h -6.91954 z"
       style="font-size:103.895px;font-family:Avenir;-inkscape-font-specification:Avenir;fill:#fcfc03;fill-opacity:1;stroke:#fdfd81;stroke-width:0.6;stroke-linejoin:round;stroke-dasharray:none;stroke-opacity:1"
       id="path51069" />
    <path
       d="m 180.74563,54.88353 q 0,-4.01532 -1.36294,-7.51586 -1.2581,-3.50053 -3.66945,-6.07446 -2.41136,-2.57392 -5.87113,-4.01532 -3.35493,-1.54436 -7.65343,-1.54436 -4.2985,0 -7.75828,1.54436 -3.35493,1.4414 -5.76628,4.01532 -2.30651,2.57393 -3.66946,6.07446 -1.25809,3.50054 -1.25809,7.51586 0,4.01533 1.25809,7.51587 1.36295,3.50054 3.66946,6.07446 2.41135,2.57393 5.76628,4.11828 3.45978,1.4414 7.75828,1.4414 4.2985,0 7.65343,-1.4414 3.45977,-1.54435 5.87113,-4.11828 2.41135,-2.57392 3.66945,-6.07446 1.36294,-3.50054 1.36294,-7.51587 z m 7.54859,0 q 0,5.45673 -1.99199,10.08979 -1.88715,4.63307 -5.34691,8.03065 -3.45978,3.39758 -8.28249,5.35376 -4.71787,1.85323 -10.48415,1.85323 -5.66145,0 -10.48416,-1.85323 -4.71786,-1.95618 -8.17764,-5.35376 -3.45976,-3.39758 -5.45176,-8.03065 -1.88715,-4.63306 -1.88715,-10.08979 0,-5.45671 1.88715,-10.08979 1.992,-4.63306 5.45176,-8.03064 3.45978,-3.39758 8.17764,-5.2508 4.82271,-1.95619 10.48416,-1.95619 5.76628,0 10.48415,1.95619 4.82271,1.85322 8.28249,5.2508 3.45976,3.39758 5.34691,8.03064 1.99199,4.63308 1.99199,10.08979 z"
       style="font-size:103.895px;font-family:Avenir;-inkscape-font-specification:Avenir;fill:#fcfc03;fill-opacity:1;stroke:#fdfd81;stroke-width:0.6;stroke-linejoin:round;stroke-dasharray:none;stroke-opacity:1"
       id="path51071" />
    <path
       d="m 242.9165,54.88353 q 0,-4.01532 -1.36295,-7.51586 -1.2581,-3.50053 -3.66945,-6.07446 -2.41136,-2.57392 -5.87112,-4.01532 -3.35493,-1.54436 -7.65344,-1.54436 -4.2985,0 -7.75827,1.54436 -3.35493,1.4414 -5.76628,4.01532 -2.30652,2.57393 -3.66945,6.07446 -1.2581,3.50054 -1.2581,7.51586 0,4.01533 1.2581,7.51587 1.36293,3.50054 3.66945,6.07446 2.41135,2.57393 5.76628,4.11828 3.45977,1.4414 7.75827,1.4414 4.29851,0 7.65344,-1.4414 3.45976,-1.54435 5.87112,-4.11828 2.41135,-2.57392 3.66945,-6.07446 1.36295,-3.50054 1.36295,-7.51587 z m 7.54859,0 q 0,5.45673 -1.992,10.08979 -1.88715,4.63307 -5.34691,8.03065 -3.45978,3.39758 -8.28249,5.35376 -4.71786,1.85323 -10.48415,1.85323 -5.66144,0 -10.48415,-1.85323 -4.71787,-1.95618 -8.17763,-5.35376 -3.45978,-3.39758 -5.45176,-8.03065 -1.88715,-4.63306 -1.88715,-10.08979 0,-5.45671 1.88715,-10.08979 1.99198,-4.63306 5.45176,-8.03064 3.45976,-3.39758 8.17763,-5.2508 4.82271,-1.95619 10.48415,-1.95619 5.76629,0 10.48415,1.95619 4.82271,1.85322 8.28249,5.2508 3.45976,3.39758 5.34691,8.03064 1.992,4.63308 1.992,10.08979 z"
       style="font-size:103.895px;font-family:Avenir;-inkscape-font-specification:Avenir;fill:#fcfc03;fill-opacity:1;stroke:#fdfd81;stroke-width:0.6;stroke-linejoin:round;stroke-dasharray:none;stroke-opacity:1"
       id="path51073" />
    <path
       d="m 289.04661,42.21982 q -1.57263,-2.98575 -4.19366,-4.73602 -2.62104,-1.75027 -6.39534,-1.75027 -1.7823,0 -3.66945,0.41183 -1.78231,0.41182 -3.25009,1.33844 -1.46778,0.82366 -2.41135,2.16209 -0.83873,1.33845 -0.83873,3.29463 0,3.39758 2.41135,4.94193 2.41136,1.54437 7.23407,2.67689 l 7.02438,1.64731 q 5.13724,1.13253 8.49216,4.63307 3.45977,3.39758 3.45977,8.54543 0,3.91236 -1.67746,6.79516 -1.57262,2.77984 -4.2985,4.63307 -2.62105,1.75026 -6.08081,2.57392 -3.45978,0.82366 -7.02439,0.82366 -5.66144,0 -10.58899,-2.05914 -4.82271,-2.1621 -8.28249,-7.30995 l 5.97598,-4.01533 q 2.09683,3.29463 5.24207,5.25082 3.25009,1.95618 7.65343,1.95618 2.09683,0 4.19366,-0.41183 2.09683,-0.51478 3.66946,-1.4414 1.67747,-1.02957 2.62103,-2.57392 1.04842,-1.54436 1.04842,-3.6035 0,-3.60349 -2.72588,-5.14785 -2.72588,-1.64731 -6.60501,-2.57392 l -6.70986,-1.54436 q -1.2581,-0.30887 -3.45978,-1.02957 -2.09683,-0.7207 -4.19366,-2.16209 -1.99198,-1.4414 -3.45976,-3.70646 -1.46778,-2.36801 -1.46778,-5.76559 0,-3.70645 1.46778,-6.4863 1.57262,-2.77983 4.08881,-4.5301 2.62105,-1.75027 5.87113,-2.57392 3.25009,-0.92662 6.70986,-0.92662 5.13724,0 9.54058,1.95619 4.40335,1.95617 6.8147,6.6922 z"
       style="font-size:103.895px;font-family:Avenir;-inkscape-font-specification:Avenir;fill:#fcfc03;fill-opacity:1;stroke:#fdfd81;stroke-width:0.6;stroke-linejoin:round;stroke-dasharray:none;stroke-opacity:1"
       id="path51075" />
    <path
       d="m 345.87057,51.17708 q 0,-6.89812 -4.19366,-11.11936 -4.19366,-4.32419 -11.74225,-4.32419 -3.35493,0 -6.50018,1.33844 -3.14524,1.23549 -5.55659,3.39758 -2.30652,2.1621 -3.7743,4.94194 -1.36294,2.77984 -1.36294,5.76559 z m -33.33961,5.55968 q 0.31453,3.6035 1.78231,6.79516 1.46779,3.19167 3.87914,5.55968 2.41136,2.26505 5.5566,3.6035 3.14525,1.33844 6.8147,1.33844 5.5566,0 9.54058,-2.47097 4.08882,-2.57392 6.18565,-5.86855 l 5.34692,4.3242 q -4.40334,5.45671 -9.75027,7.82473 -5.24207,2.36801 -11.32288,2.36801 -5.45176,0 -10.16963,-1.85323 -4.61302,-1.95618 -7.96795,-5.35376 -3.35493,-3.39758 -5.34693,-8.03065 -1.88714,-4.63306 -1.88714,-10.08979 0,-5.45671 1.88714,-10.08979 1.88715,-4.63306 5.24208,-8.03064 3.35493,-3.39758 7.86312,-5.2508 4.50818,-1.95619 9.75026,-1.95619 5.5566,0 9.95995,1.95619 4.40334,1.95617 7.33891,5.2508 3.0404,3.19167 4.61302,7.61882 1.57262,4.32419 1.57262,9.26613 v 3.08871 z"
       style="font-size:103.895px;font-family:Avenir;-inkscape-font-specification:Avenir;fill:#fcfc03;fill-opacity:1;stroke:#fdfd81;stroke-width:0.6;stroke-linejoin:round;stroke-dasharray:none;stroke-opacity:1"
       id="path51077" />
    <path
       d="m 392.31535,78.97547 h -7.54859 V 47.57359 L 356.98375,6.08191 h 9.43574 l 22.12156,34.38764 22.12157,-34.38764 h 9.43574 l -27.78301,41.49168 z"
       style="font-size:103.895px;font-family:Avenir;-inkscape-font-specification:Avenir;fill:#fcfc03;fill-opacity:1;stroke:#fdfd81;stroke-width:0.6;stroke-linejoin:round;stroke-dasharray:none;stroke-opacity:1"
       id="path51079" />
    <path
       d="m 569.18291,51.79482 q 0,4.53011 -1.15325,9.67796 -1.04842,5.0449 -4.08883,9.36909 -3.0404,4.3242 -8.38732,7.20699 -5.24208,2.77984 -13.52455,2.77984 -8.38733,0 -13.6294,-2.77984 -5.24208,-2.88279 -8.28248,-7.20699 -3.04041,-4.32419 -4.19366,-9.36909 -1.04841,-5.14785 -1.04841,-9.67796 V 6.08191 h 7.54859 v 44.88926 q 0,5.25081 1.04841,9.06021 1.04842,3.70645 2.72588,6.28038 1.7823,2.57392 3.87913,4.11829 2.20168,1.44139 4.2985,2.26505 2.20168,0.82366 4.19366,1.13252 1.992,0.20592 3.45978,0.20592 1.36293,0 3.35493,-0.20592 2.09683,-0.30886 4.19366,-1.13252 2.20167,-0.82366 4.2985,-2.26505 2.20167,-1.54437 3.87914,-4.11829 1.7823,-2.57393 2.83071,-6.28038 1.04842,-3.8094 1.04842,-9.06021 V 6.08191 h 7.54859 z"
       style="font-size:103.895px;font-family:Avenir;-inkscape-font-specification:Avenir;fill:#fcfc03;fill-opacity:1;stroke:#fdfd81;stroke-width:0.6;stroke-linejoin:round;stroke-dasharray:none;stroke-opacity:1"
       id="path51081" />
    <path
       d="m 678.3228,67.44429 q -1.88715,2.77984 -4.71786,5.25081 -2.72588,2.47097 -6.29049,4.32419 -3.56462,1.75027 -7.75828,2.77984 -4.08882,1.02957 -8.70185,1.02957 -8.28248,0 -15.4117,-2.8828 -7.02439,-2.88279 -12.26647,-7.92768 -5.13723,-5.14785 -8.07279,-12.14893 -2.93556,-7.00108 -2.93556,-15.3406 0,-8.33951 2.93556,-15.34059 2.93556,-7.00108 8.07279,-12.04597 5.24208,-5.14785 12.26647,-8.03065 7.12922,-2.8828 15.4117,-2.8828 6.91954,0 13.83908,2.67688 6.91954,2.67689 11.8471,8.85431 l -6.60502,4.83898 q -1.15325,-1.75027 -3.14525,-3.50054 -1.99198,-1.75027 -4.61302,-3.08871 -2.5162,-1.33844 -5.45176,-2.1621 -2.93557,-0.82365 -5.87113,-0.82365 -7.12922,0 -12.79067,2.57393 -5.66144,2.57392 -9.64542,6.89811 -3.87913,4.32419 -5.97596,10.08979 -2.09683,5.66264 -2.09683,11.94301 0,6.28038 2.09683,12.04598 2.09683,5.66263 5.97596,9.98682 3.98398,4.32419 9.64542,6.89813 5.66145,2.57392 12.79067,2.57392 2.93556,0 5.76629,-0.51478 2.93556,-0.51479 5.66144,-1.75028 2.83072,-1.23548 5.24208,-3.29462 2.5162,-2.1621 4.61303,-5.35377 z"
       style="font-size:103.895px;font-family:Avenir;-inkscape-font-specification:Avenir;fill:#fcfc03;fill-opacity:1;stroke:#fdfd81;stroke-width:0.6;stroke-linejoin:round;stroke-dasharray:none;stroke-opacity:1"
       id="path51083" />
    <path
       d="m 730.53378,54.88353 q 0,-4.01532 -1.36295,-7.51586 -1.2581,-3.50053 -3.66945,-6.07446 -2.41136,-2.57392 -5.87112,-4.01532 -3.35493,-1.54436 -7.65343,-1.54436 -4.29851,0 -7.75827,1.54436 -3.35493,1.4414 -5.76629,4.01532 -2.30652,2.57393 -3.66945,6.07446 -1.2581,3.50054 -1.2581,7.51586 0,4.01533 1.2581,7.51587 1.36293,3.50054 3.66945,6.07446 2.41136,2.57393 5.76629,4.11828 3.45976,1.4414 7.75827,1.4414 4.2985,0 7.65343,-1.4414 3.45976,-1.54435 5.87112,-4.11828 2.41135,-2.57392 3.66945,-6.07446 1.36295,-3.50054 1.36295,-7.51587 z m 7.54859,0 q 0,5.45673 -1.992,10.08979 -1.88715,4.63307 -5.34691,8.03065 -3.45978,3.39758 -8.28249,5.35376 -4.71786,1.85323 -10.48414,1.85323 -5.66144,0 -10.48415,-1.85323 -4.71788,-1.95618 -8.17764,-5.35376 -3.45978,-3.39758 -5.45176,-8.03065 -1.88715,-4.63306 -1.88715,-10.08979 0,-5.45671 1.88715,-10.08979 1.99198,-4.63306 5.45176,-8.03064 3.45976,-3.39758 8.17764,-5.2508 4.82271,-1.95619 10.48415,-1.95619 5.76628,0 10.48414,1.95619 4.82271,1.85322 8.28249,5.2508 3.45976,3.39758 5.34691,8.03064 1.992,4.63308 1.992,10.08979 z"
       style="font-size:103.895px;font-family:Avenir;-inkscape-font-specification:Avenir;fill:#fcfc03;fill-opacity:1;stroke:#fdfd81;stroke-width:0.6;stroke-linejoin:round;stroke-dasharray:none;stroke-opacity:1"
       id="path51085" />
    <path
       d="m 778.55102,54.98649 q -2.62104,0 -6.60501,0.30887 -3.87915,0.20591 -7.54859,1.23548 -3.56462,0.92662 -6.18566,2.98576 -2.5162,2.05914 -2.5162,5.66263 0,2.36802 0.94358,4.11828 1.04842,1.64732 2.72588,2.77985 1.67747,1.02957 3.66945,1.54435 2.09683,0.41183 4.19366,0.41183 3.7743,0 6.50018,-1.23549 2.83072,-1.23548 4.71787,-3.29462 1.88715,-2.1621 2.72588,-4.94194 0.94357,-2.8828 0.94357,-6.07446 v -3.50054 z m 3.56461,-5.55967 v -1.23549 q 0,-12.4578 -12.58098,-12.4578 -8.59701,0 -14.99234,5.66264 l -4.19366,-4.83899 q 6.91954,-7.00107 20.75862,-7.00107 3.56462,0 6.8147,1.02957 3.35493,1.02957 5.76629,3.19167 2.41135,2.05914 3.87913,5.2508 1.46778,3.19167 1.46778,7.61882 v 21.51802 q 0,2.77984 0.20968,5.86855 0.31453,2.98575 0.62905,4.94193 h -6.70985 q -0.31452,-1.75026 -0.52421,-3.8094 -0.10484,-2.05914 -0.10484,-4.01533 h -0.20969 q -3.0404,4.83898 -7.23406,7.00108 -4.08882,2.05914 -10.06479,2.05914 -3.25009,0 -6.29049,-0.92661 -3.04041,-0.82366 -5.45176,-2.57393 -2.30651,-1.85323 -3.77429,-4.42715 -1.36295,-2.67688 -1.36295,-6.17742 0,-5.86855 3.04041,-9.16318 3.14525,-3.39757 7.75828,-5.04489 4.71786,-1.64731 9.95994,-2.05914 5.34692,-0.41182 9.75026,-0.41182 z"
       style="font-size:103.895px;font-family:Avenir;-inkscape-font-specification:Avenir;fill:#fcfc03;fill-opacity:1;stroke:#fdfd81;stroke-width:0.6;stroke-linejoin:round;stroke-dasharray:none;stroke-opacity:1"
       id="path51087" />
    <path
       d="m 840.82684,42.11686 q -1.78231,-2.67688 -5.03239,-4.53011 -3.14525,-1.85322 -7.23408,-1.85322 -4.29849,-0.10295 -7.75827,1.33844 -3.35493,1.4414 -5.76628,4.01532 -2.41136,2.57393 -3.66946,6.17742 -1.2581,3.50054 -1.2581,7.61882 0,4.11828 1.2581,7.72178 1.2581,3.50054 3.66946,6.07446 2.41135,2.57393 5.76628,4.01533 3.45978,1.4414 7.75827,1.33844 4.08883,0 7.23408,-1.85323 3.25008,-1.85323 5.03239,-4.53011 l 5.66144,4.22124 q -3.66946,4.22124 -8.28248,6.28038 -4.61303,1.95618 -9.64543,2.05914 -5.97596,0.10296 -10.79867,-1.75027 -4.82271,-1.95619 -8.28249,-5.35376 -3.35492,-3.39759 -5.13723,-8.03065 -1.78231,-4.73602 -1.78231,-10.19275 0,-5.45671 1.78231,-10.08979 1.78231,-4.73602 5.13723,-8.13359 3.45978,-3.39759 8.28249,-5.25082 4.82271,-1.95617 10.79867,-1.85322 5.0324,0.10296 9.64543,2.1621 4.61302,1.95618 8.28248,6.17742 z"
       style="font-size:103.895px;font-family:Avenir;-inkscape-font-specification:Avenir;fill:#fcfc03;fill-opacity:1;stroke:#fdfd81;stroke-width:0.6;stroke-linejoin:round;stroke-dasharray:none;stroke-opacity:1"
       id="path51089" />
    <path
       d="m 855.60931,1.13997 h 6.91954 v 37.3734 h 0.20968 q 1.15327,-1.95619 2.93557,-3.6035 1.78231,-1.64731 3.98397,-2.77983 2.20168,-1.23549 4.61303,-1.85323 2.5162,-0.7207 4.92756,-0.7207 9.43574,0 13.94392,4.94193 4.50818,4.83899 4.50818,13.8992 v 30.57823 h -6.91953 V 52.30961 q 0,-8.03065 -2.83073,-12.25189 -2.83071,-4.32419 -10.48415,-4.32419 -0.5242,0 -2.93556,0.41183 -2.41135,0.41182 -5.13723,2.26505 -2.62105,1.85323 -4.71788,5.55968 -2.09683,3.70645 -2.09683,10.2957 v 24.70968 h -6.91954 z"
       style="font-size:103.895px;font-family:Avenir;-inkscape-font-specification:Avenir;fill:#fcfc03;fill-opacity:1;stroke:#fdfd81;stroke-width:0.6;stroke-linejoin:round;stroke-dasharray:none;stroke-opacity:1"
       id="path51091" />
    <path
       d="m 923.96593,12.25933 q 0,2.1621 -1.57262,3.6035 -1.57262,1.33844 -3.45976,1.33844 -1.88715,0 -3.45978,-1.33844 -1.57262,-1.4414 -1.57262,-3.6035 0,-2.16209 1.57262,-3.50054 1.57263,-1.4414 3.45978,-1.4414 1.88714,0 3.45976,1.4414 1.57262,1.33845 1.57262,3.50054 z m -1.57262,66.71614 h -6.91954 V 30.79159 h 6.91954 z"
       style="font-size:103.895px;font-family:Avenir;-inkscape-font-specification:Avenir;fill:#fcfc03;fill-opacity:1;stroke:#fdfd81;stroke-width:0.6;stroke-linejoin:round;stroke-dasharray:none;stroke-opacity:1"
       id="path51093" />
    <path
       d="m 945.66808,30.79159 q 0.2097,1.95619 0.2097,3.91237 0.1049,1.85322 0.1049,3.80941 h 0.2097 q 1.1533,-1.95619 2.9356,-3.6035 1.7822,-1.64731 3.9839,-2.77983 2.2017,-1.23549 4.6131,-1.85323 2.5161,-0.7207 4.9275,-0.7207 9.4357,0 13.944,4.94193 4.5082,4.83899 4.5082,13.8992 v 30.57823 h -6.9196 V 52.30961 q 0,-8.03065 -2.8308,-12.25189 -2.8306,-4.32419 -10.4841,-4.32419 -0.5243,0 -2.9355,0.41183 -2.4114,0.41182 -5.1373,2.26505 -2.6211,1.85323 -4.7179,5.55968 -2.0968,3.70645 -2.0968,10.2957 v 24.70968 h -6.9195 v -37.5793 q 0,-1.95619 -0.2097,-4.94194 -0.1048,-2.98576 -0.3145,-5.66264 z"
       style="font-size:103.895px;font-family:Avenir;-inkscape-font-specification:Avenir;fill:#fcfc03;fill-opacity:1;stroke:#fdfd81;stroke-width:0.6;stroke-linejoin:round;stroke-dasharray:none;stroke-opacity:1"
       id="path51095" />
    <path
       d="m 1002.3874,54.26579 q 0,3.80941 1.3629,7.20699 1.4678,3.29462 3.8791,5.86855 2.5162,2.47097 5.7664,4.01532 3.3549,1.4414 7.234,1.4414 3.7743,0 7.1293,-1.33843 3.4597,-1.33845 6.0808,-3.70646 2.621,-2.47097 3.9839,-5.86855 1.4678,-3.39758 1.3629,-7.61882 0,-3.8094 -1.258,-7.10403 -1.2582,-3.39759 -3.6695,-5.86855 -2.4113,-2.57392 -5.8712,-4.01532 -3.4597,-1.54436 -7.7582,-1.54436 -3.8791,0 -7.234,1.54436 -3.2502,1.4414 -5.7664,4.01532 -2.4113,2.47096 -3.8791,5.86855 -1.3629,3.29463 -1.3629,7.10403 z m -1.2582,34.38764 q 3.0405,4.01533 7.8632,6.38334 4.9275,2.47096 10.9035,2.47096 5.2421,0 8.9115,-1.54435 3.6695,-1.44139 5.8711,-4.01532 2.3066,-2.57393 3.2502,-6.07446 1.0483,-3.39759 1.0483,-7.30996 v -8.64838 h -0.2097 q -3.3548,4.94193 -8.1776,7.00107 -4.8226,2.05914 -10.1696,2.05914 -5.3469,0 -10.0648,-1.85322 -4.613,-1.85323 -8.0727,-5.04489 -3.45982,-3.29463 -5.45192,-7.82474 -1.992,-4.5301 -1.992,-9.78092 0,-5.2508 1.8873,-9.78091 1.8871,-4.53011 5.13722,-7.92769 3.3549,-3.39758 7.8631,-5.2508 4.613,-1.95619 10.0648,-1.95619 2.2016,0 4.613,0.41183 2.5162,0.41182 4.9276,1.44139 2.5162,1.02957 4.9275,2.8828 2.4113,1.75027 4.5081,4.53011 h 0.2097 v -8.03065 h 6.9196 v 47.77205 q 0,3.91237 -1.0484,8.33953 -0.9436,4.42714 -3.8792,8.1336 -2.8306,3.70645 -7.9679,6.17742 -5.1372,2.47096 -13.4197,2.47096 -7.3389,0 -13.1052,-2.368 -5.7662,-2.36802 -10.48412,-7.30995 z"
       style="font-size:103.895px;font-family:Avenir;-inkscape-font-specification:Avenir;fill:#fcfc03;fill-opacity:1;stroke:#fdfd81;stroke-width:0.6;stroke-linejoin:round;stroke-dasharray:none;stroke-opacity:1"
       id="path51097" />
    <path
       style="color:#000000;fill:#ffffff;fill-opacity:1;stroke:#fdfd81;stroke-width:2.076;stroke-linejoin:round;stroke-dasharray:none;stroke-opacity:1"
       d="m 463.01882,81.70391 c 23.71132,0 42.98651,-17.46703 42.98651,-38.95294 0,-21.48592 -19.27519,-38.95206 -42.98651,-38.95206 -23.71131,0 -42.98749,17.46614 -42.98749,38.95206 0,21.48591 19.27618,38.95294 42.98749,38.95294 z m 0,-4.54211 c -21.00234,0 -37.97494,-15.37965 -37.97494,-34.41083 0,-19.03118 16.9726,-34.40996 37.97494,-34.40996 21.00233,0 37.97396,15.37878 37.97396,34.40996 0,19.03118 -16.97163,34.41083 -37.97396,34.41083 z"
       id="path874-0-8" />
    <path
       style="color:#000000;opacity:0.41;fill:#fcfc03;fill-opacity:1;stroke:#fdfd81;stroke-width:2.076;stroke-linejoin:round;stroke-dasharray:none;stroke-opacity:1"
       d="m 463.01882,81.70391 c 23.71132,0 42.98651,-17.46703 42.98651,-38.95294 0,-21.48592 -19.27519,-38.95206 -42.98651,-38.95206 -23.71131,0 -42.98749,17.46614 -42.98749,38.95206 0,21.48591 19.27618,38.95294 42.98749,38.95294 z m 0,-4.54211 c -21.00234,0 -37.97494,-15.37965 -37.97494,-34.41083 0,-19.03118 16.9726,-34.40996 37.97494,-34.40996 21.00233,0 37.97396,15.37878 37.97396,34.40996 0,19.03118 -16.97163,34.41083 -37.97396,34.41083 z"
       id="path874-0" />
    <path
       style="color:#000000;opacity:0.41;fill:#fcfc03;fill-opacity:1;stroke:#fdfd81;stroke-width:2.076;stroke-linejoin:round;stroke-dasharray:none;stroke-opacity:1"
       d="m 463.01833,50.23273 c 4.54788,0 8.28824,-3.39849 8.28824,-7.52961 0,-4.13111 -3.74036,-7.52872 -8.28824,-7.52872 -4.54787,0 -8.28823,3.39761 -8.28823,7.52872 0,4.13112 3.74036,7.52961 8.28823,7.52961 z m 0,-4.54779 c -1.84212,0 -3.28165,-1.3085 -3.28165,-2.98182 0,-1.67331 1.43953,-2.98093 3.28165,-2.98093 1.84213,0 3.28166,1.30762 3.28166,2.98093 0,1.67332 -1.43953,2.98182 -3.28166,2.98182 z"
       id="path874-9-4" />
  </g>
</svg>
