<?xml version="1.0" encoding="UTF-8" standalone="no"?>
<!-- Created with Inkscape (http://www.inkscape.org/) -->

<svg
   width="210mm"
   height="297mm"
   viewBox="0 0 210 297"
   version="1.1"
   id="svg42591"
   xmlnsXlink="http://www.w3.org/1999/xlink"
   xmlns="http://www.w3.org/2000/svg"
   xmlnsSvg="http://www.w3.org/2000/svg">
  <defs
     id="defs42588">
    <linearGradient
       id="linearGradient56233">
      <stop
         style="stop-color:#e9a82f;stop-opacity:0.60000002;"
         offset="0"
         id="stop56229" />
      <stop
         style="stop-color:#e9a82f;stop-opacity:0;"
         offset="1"
         id="stop56231" />
    </linearGradient>
    <radialGradient
       xlink:href="#linearGradient56233"
       id="radialGradient56237"
       cx="117.5765"
       cy="167.12259"
       fx="117.5765"
       fy="167.12259"
       r="74.99334"
       gradientTransform="matrix(0.26978967,0.96036646,-1.1200378,0.31464512,273.03919,1.6217597)"
       gradientUnits="userSpaceOnUse" />
  </defs>
  <g
     id="layer1">
    <path
       style="color:#000000;fill:#8c8c8c;fill-rule:evenodd;stroke-linecap:square;stroke-linejoin:round;stroke-miterlimit:58.8;-inkscape-stroke:none;paint-order:stroke fill markers"
       d="m 102.35352,57.072266 c -7.546965,0 -13.312868,3.200355 -18.126897,8.313037 -4.448122,4.724075 -8.238342,11.08082 -8.238342,18.05415 0,2.430512 0.331877,4.786119 0.952627,7.023798 1.322134,4.766027 3.857705,8.99708 7.274281,12.277459 4.56251,4.38063 10.696121,7.06593 17.609161,7.06593 4.98013,0 9.17886,-1.92276 13.24171,-4.33982 7.78299,-4.63025 13.65464,-12.487201 13.65464,-22.027367 0,-7.478302 -3.67155,-13.718319 -8.70314,-18.525191 -4.73802,-4.526422 -10.62205,-7.841996 -17.66404,-7.841996 z m 0,7 c 5.27684,0 9.51556,2.613535 13.00025,6.00803 3.60589,3.512555 6.36693,7.898785 6.36693,13.359157 0,2.145632 0.11363,4.136195 -0.61347,5.971566 -1.25899,3.177983 -3.98125,5.890677 -6.56867,8.137455 -3.39609,2.948996 -7.30867,5.258166 -12.18504,5.258166 -2.13482,0 -3.575707,-0.30046 -5.374901,-0.87268 -4.689033,-1.49132 -8.746704,-4.828483 -11.006674,-9.503475 -1.234301,-2.553286 -2.983664,-5.952356 -2.983664,-8.991032 0,-1.793101 0.76979,-3.527435 1.220676,-5.172621 2.24905,-8.206306 9.200445,-14.194566 18.144563,-14.194566 z"
       id="path52189" />
    <path
       style="fill:none;fill-opacity:0.466667;fill-rule:evenodd;stroke:#8c8c8c;stroke-width:7;stroke-linecap:square;stroke-linejoin:round;stroke-miterlimit:58.8;stroke-opacity:1;paint-order:stroke fill markers"
       d="m 75.500415,125.70744 c 2.393955,-3.23157 7.29198,-4.55993 11.472319,-4.98154 l 16.715906,0.67442 10.81451,-0.43519 c 4.07935,-0.16416 7.68935,1.22219 10.72914,3.52805 2.14488,1.62701 5.37204,4.87343 6.51469,8.00397 l 3.96858,12.97825 5.20928,10.71671 3.79596,11.84964 9.97602,11.66422 6.01276,8.07746 6.4847,7.11785 c 3.1736,3.48346 8.34594,12.33435 4.87104,17.63849 -3.4749,5.30414 -9.69567,5.27301 -12.77834,1.25234 l -5.69986,-8.84627 -5.04874,-5.50545 -4.94569,-6.13201 -5.32944,-6.24696 -3.51972,-5.28089 -5.81195,-14.10197 -5.27391,-8.65289 -2.00251,15.86179 -2.00254,9.23119 -2.1367,8.7127 -0.6139,13.47914 -1.68936,13.68103 5.03794,4.44703 5.45056,2.93427 8.19209,3.70415 5.84751,3.74475 8.31502,3.91448 14.35196,5.87694 10.17491,5.6125 c 2.13303,1.17658 2.87409,4.73773 3.1504,8.6363 0.41595,5.86883 -5.95489,11.40426 -10.16013,11.19909 l -12.47988,-0.60888 -10.16502,-0.10733 -10.56716,-1.39234 -3.63308,-0.0213 -9.18504,-0.5829 -9.13212,0.47573 -12.037025,0.0126 -6.445,0.60253 -11.717321,-0.39578 -12.660072,1.04214 -14.200081,2.06441 -8.80239,1.22704 -18.403489,2.26251 c -5.495696,-0.34031 -8.232435,-5.5959 -8.236829,-11.06663 -0.0034,-4.18554 1.279859,-8.6875 5.650129,-10.82955 l 15.261728,-7.4804 8.804803,-3.48114 8.39329,-4.5366 8.385562,-5.33547 8.819656,-5.48293 9.26499,-5.82267 -1.692828,-10.73507 0.182345,-9.05794 0.143527,-7.5685 -1.302871,-11.64898 0.139617,-9.06551 -1.109372,-13.5024 -8.588221,11.10318 -4.130312,7.65091 -9.988658,12.25346 -7.307801,7.89724 -8.537908,12.75034 c -3.355984,4.16773 -9.017101,0.28042 -10.806954,-2.78307 -1.789853,-3.06349 -1.545706,-7.99998 4.05158,-14.99413 l 7.834844,-9.26315 5.273987,-8.30754 10.135992,-11.47516 8.161582,-17.01678 3.295627,-9.32188 c 0,0 4.777384,-8.46353 7.257668,-11.81165 z"
       id="path53006" />
    <path
       style="fill:url(#radialGradient56237);fill-opacity:1;fill-rule:evenodd;stroke:#8c8c8c;stroke-width:0;stroke-linecap:square;stroke-linejoin:round;stroke-miterlimit:58.8;stroke-dasharray:none;stroke-opacity:1;paint-order:stroke fill markers"
       d="m 169.05324,125.1305 -43.82095,-0.63732 c 0,0 -54.036617,6.69776 -56.989543,13.02591 -2.952926,6.32815 -7.376418,17.83027 -7.376418,17.83027 l 5.264127,22.4304 7.750782,90.78467 36.529382,-0.74042 10.90839,-93.09447 L 210,153.74939 193.14375,133.30322 Z"
       id="path53853" />
    <path
       d="m 22.246332,30.496671 c 0.313909,2.206173 1.01489,2.622813 4.23333,2.629579 -3.444961,0.775956 -3.64882,1.753053 -4.23333,6.105972 -0.639851,-4.352919 -0.74004,-5.330743 -4.23333,-6.105972 3.386799,0 3.885379,-0.414276 4.23333,-2.629579 z"
       fill="#ffc107"
       id="path2"
       style="fill:#7ea692;fill-opacity:0.29038855;stroke:#7ea692;stroke-width:0.264583;stroke-opacity:0.56850713" />
    <path
       d="m 45.196228,11.778609 c 0.364666,4.300896 0.869515,5.112037 4.917814,5.12632 -4.222192,0 -4.620394,3.387097 -4.917814,11.903486 -0.249626,-8.525975 -0.724364,-11.047654 -4.917807,-11.903486 4.366633,0 4.513601,-0.807623 4.917807,-5.12632 z"
       fill="#ffc107"
       id="path2-0"
       style="fill:#7ea692;fill-opacity:0.29038855;stroke:#7ea692;stroke-width:0.264584;stroke-opacity:0.56850713" />
    <path
       d="m 83.700639,9.0268538 c 0.568929,5.6925302 1.839388,6.7675742 7.672508,6.7850332 -6.243659,2.002179 -7.672508,2.501931 -7.672508,15.75508 0,-13.266405 -1.341251,-13.754777 -7.672503,-15.75508 6.138251,0 7.041881,-1.068944 7.672503,-6.7850332 z"
       fill="#ffc107"
       id="path2-0-8"
       style="fill:#7ea692;fill-opacity:0.29038855;stroke:#7ea692;stroke-width:0.264584;stroke-opacity:0.56850713" />
    <path
       d="m 22.377123,45.542356 c 0.568933,4.3301 1.70858,6.325162 7.5417,6.338441 -6.243663,1.522983 -7.572545,3.398134 -7.672512,11.984318 0.123825,-8.59181 -1.341247,-10.462762 -7.672499,-11.984318 6.138251,0 7.172693,-1.990419 7.803311,-6.338441 z"
       fill="#ffc107"
       id="path2-0-8-3"
       style="fill:#7ea692;fill-opacity:0.29038855;stroke:#7ea692;stroke-width:0.264584;stroke-opacity:0.56850713" />
  </g>
</svg>
