<?xml version="1.0" encoding="UTF-8"?>
<!-- Created with Inkscape (http://www.inkscape.org/) -->
<svg width="135.54mm" height="120.64mm" version="1.1" viewBox="0 0 135.54 120.64" xmlns="http://www.w3.org/2000/svg">
 <g transform="translate(-11.564 -43.684)" fill="none" stroke="#a1a1a1" stroke-linecap="square" stroke-linejoin="round" stroke-miterlimit="58.8" stroke-width="7">
  <path d="m128.44 47.183s-3.5863 2.0883-8.9179 4.6927c-4.2064 2.0548-9.4991 4.231-14.974 7.3347-3.1095 1.7628-6.2778 4.15-9.3391 6.0404-7.6662 4.734-15.058 9.2752-18.382 13.828-1.6138 2.2103-2.4563 4.9196-3.6332 7.0709-4.8719 8.9053-6.937 16.788-8.5088 24.808-0.38996 1.9898-0.23182 3.4474-0.62697 5.4411-1.0292 5.1927-0.61767 11.327 0.17828 16.609 1.039 6.8943 2.7329 10.749 2.7329 10.749s2.2006 2.7744 6.5296 5.1965c3.155 1.7652 6.6304 4.6827 11.047 5.835 3.0201 0.788 6.2327 1.7306 9.4979 1.488 4.8699-0.36178 11.06 0.49501 17.369 0.0115 6.1198-0.46905 12.35-2.2618 17.593-3.6654 5.5448-1.4844 9.9847-2.946 12.02-7.2782 3.5762-7.6114 3.6344-14.835-0.51982-21.355-1.7282-2.7124-3.3102-6.1781-7.0651-8.1052-2.2207-1.1398-5.3444-3.1859-8.3491-3.991-5.5529-1.4879-11.999 1.7082-17.471 5.1562-1.3018 0.82023-3.6069 3.7827-4.7735 4.6157-5.0542 3.6089-7.5446 6.4474-7.5446 6.4474s-4.0922-1.8749-6.6435-8.4673c-0.30115-0.77813-1.6465-5.2745-1.912-6.0734-0.89795-2.7024 0.16886-5.4805-0.04475-8.0435-0.21338-2.5602 0.93797-4.9058 1.2674-6.7471 0.52826-2.9523 1.7168-5.9161 3.7712-8.5894 2.247-2.924 4.3675-5.5007 6.3039-7.3351 1.5976-1.5135 2.7098-2.9526 2.7098-2.9526l6.2919-5.6514 8.9239-5.7748 9.5396-8.7254 0.93726-6.2881z" style="paint-order:stroke fill markers"/>
  <path d="m60.371 120.73c-0.37757 0.22901-0.75128 0.46053-1.1206 0.6932-1.3018 0.82023-3.6069 3.7827-4.7735 4.6157-5.0542 3.6089-7.5446 6.4474-7.5446 6.4474s-4.0922-1.8749-6.6435-8.4673c-0.30116-0.77813-1.6466-5.2745-1.912-6.0734-0.89795-2.7024 0.16886-5.4805-0.0447-8.0435-0.21338-2.5602 0.93797-4.9058 1.2674-6.7471 0.52825-2.9523 1.7168-5.9161 3.7712-8.5894 2.247-2.924 4.3675-5.5007 6.3039-7.3351 1.5976-1.5135 2.7098-2.9526 2.7098-2.9526l6.2919-5.6514 8.9239-5.7748 9.5396-8.7254 0.93726-6.2881 1.9939-6.2807s-3.5863 2.0883-8.9179 4.6927c-4.2064 2.0548-9.4991 4.231-14.974 7.3347-3.1095 1.7628-6.2778 4.15-9.3392 6.0404-7.6662 4.734-15.058 9.2752-18.382 13.828-1.6138 2.2103-2.4563 4.9196-3.6332 7.0709-4.8719 8.9053-6.937 16.788-8.5088 24.808-0.38996 1.9898-0.23183 3.4474-0.62697 5.4411-1.0292 5.1927-0.61767 11.327 0.17827 16.609 1.039 6.8943 2.7329 10.749 2.7329 10.749s2.2006 2.7744 6.5296 5.1965c3.155 1.7652 6.6304 4.6827 11.047 5.835 3.0201 0.788 6.2327 1.7306 9.4979 1.488 4.8699-0.36178 11.06 0.49501 17.369 0.0115 6.1198-0.46905 12.35-2.2618 17.593-3.6654 1.3799-0.36941 2.6913-0.73741 3.9143-1.1486" style="paint-order:stroke fill markers"/>
 </g>
</svg>
