<?xml version="1.0" encoding="UTF-8"?>
<!-- Created with Inkscape (http://www.inkscape.org/) -->
<svg width="135.54mm" height="120.64mm" version="1.1" viewBox="0 0 135.54 120.64" xmlns="http://www.w3.org/2000/svg">
 <g transform="translate(-11.564 -43.684)" fill="#a1a1a1" fill-rule="evenodd" stroke-linecap="square" stroke-linejoin="round" stroke-miterlimit="58.8">
  <path d="m108.33 55.174c-6.8135-0.12007-13.025 1.1001-17.277 1.0352-4.1126-0.06283-7.5928 1.2816-10.438 2.2227-5.2413 1.7339-8.7211 5.2528-11.191 6.8867-4.5981 3.0413-6.9375 6.5879-6.9375 6.5879-0.17008 0.26028-0.30473 0.54205-0.40039 0.83789 0 0-1.4221 4.5051-1.7344 11.826-0.23665 5.5479-0.03127 12.006 1.748 17.789 0.41932 1.3629 0.53256 2.8427 1.0918 4.8965 0.0047 0.82869 0.07456 3.3415 1.2617 7.5176 1.4065 4.9478 4.3091 11.917 10.219 20.381 0.31981 0.45745 0.74438 0.83179 1.2383 1.0918 3.0435 1.6024 6.4732 3.8261 10.045 5.5449 6.006 2.8903 11.624 4.7929 15.861 6.5312 5.4728 2.245 9.1426 4.0625 9.1426 4.0625 2.9188 1.4445 6.0555-1.5303 4.7676-4.5215l-2.5469-5.9102-1.5352-5.9648c-0.19198-0.74685-0.62522-1.4094-1.2324-1.8848-10.188-7.9785-14.847-10.565-15.979-11.877-0.56561-0.65591-0.71937-0.97904-0.98047-2.7949-0.26109-1.8159-0.42471-4.8176-0.8457-9.4199l0.01172 0.23633c-0.04225-1.7713-0.31254-3.1576-0.54883-4.3086 0.04887-0.0519 0.15174-0.1 0.19141-0.15039 0.47851-0.60788 0.58736-1.0375 0.67383-1.3555 0.77087-2.8348 1.8772-4.3467 2.6777-5.1758 0.80057-0.82912 0.97461-0.82812 0.97461-0.82812 3.8462-2.5953 4.4897-2.259 7.0723 0.11133 0.998 0.91012 1.8596 1.8416 3.3711 2.6543 6.0331 3.2436 14.512 6.8097 21.76 4.3574 3.7573-1.2713 5.7583-3.7367 7.5159-4.8066 4.692-2.8562 6.2108-7.4643 7.459-9.9219 3.9924-7.8605 1.8478-16.651-2.9294-24.738-1.6469-2.7881-3.0721-4.6652-5.6936-5.8418-2.6215-1.1766-5.4036-1.7841-8.291-2.373-5.3127-1.0836-11.888-2.5804-18.521-2.6973zm-0.125 6.4689c5.6361 0.0993 10.246 3.0402 15.659 4.1441 2.7842 0.56784 5.1228 1.1378 6.8262 1.9023s3.2793 3.1796 4.119 4.6012c3.9605 6.7049 4.5318 8.1148 1.6562 13.776-1.6089 3.1677-1.436 4.0853-3.7991 5.5238-2.4148 1.47-5.132 3.4641-7.1777 4.1562-3.4766 1.1763-9.5567 2.2876-15.143-0.71562 0.12953 0.06964-1.0048-0.78308-1.9688-1.6621-0.9639-0.87903-1.7638-1.7561-3.1016-2.5742-3.5646-2.1799-7.3889-1.872-9.6563-0.60547-1.3873 0.77493-2.1957 1.656-2.7266 2.3418 0 0-2.9765 3.4067-3.598 4.7074-2.2695 2.9937-1.9212 2.4727-2.2695 2.9937-0.41223 0.61663-0.48544 1.0088-0.55078 1.3066-0.94241 4.2958-0.35743 5.3551-0.32396 6.7583 0.0019 0.0789 0.53567 2.2744 0.54284 2.353 0.4098 4.48 1.074 7.3725 1.4198 9.7773 0.34578 2.4048 1.1065 4.6286 2.6074 6.3692 2.8774 3.3368 8.6127 5.2089 17.634 12.154l-0.65586 3.623c-0.85686-0.36751-2.2549-0.33008-3.2262-0.72852-4.566-1.873-10.467-5.2827-16.012-7.9508-2.7357-1.3165-3.7274-1.6726-6.8716-3.3832-5.1766-7.5552-9.2498-13.592-10.404-17.652-1.1879-4.1787-1.0391-5.9512-1.0391-5.9512 0.02041-0.40532-0.02981-0.81111-0.14844-1.1992-0.45782-1.4991-0.45712-2.9707-1.207-5.4082-1.3767-4.4747-1.663-10.328-1.4453-15.432 0.25348-5.9425 1.1088-8.8959 1.2891-9.4902 0.31888-0.45763 1.5864-2.1941 4.6504-4.2207 3.4265-2.2664 6.2348-4.9902 9.5293-6.0801 2.9925-0.98998 5.6986-1.9083 8.1309-1.8711 5.5085 0.08414 11.426-1.6671 17.26-1.5643z" color="#000000" style="-inkscape-stroke:none;paint-order:stroke fill markers"/>
  <path d="m59.742 54.184c-7.1488-0.07239-12.392-0.29721-17.332 1.2441-4.9152 1.5336-7.0353 1.8166-11.36 5.9604-1.6152 2.4062-6.3631 9.3085-6.4662 11.858-0.03648 0.85526-0.1071 2.5112-0.10938 2.5645-3.6e-5 8.51e-4 -2e-3 0.04102-2e-3 0.04102l2e-3 0.0039c-0.99216 18.243 4.3913 29.811 7.5798 41.733 0.09379 0.35008 0.24138 0.68348 0.4375 0.98828 4.579 7.1228 4.1522 8.4677 5.3206 9.7398 2.386 2.598 2.9997 4.0498 5.8072 5.2637 4.3843 1.8271 7.9703 2.0982 11.523 3.2648 5.0299 1.6517 9.993 2.977 17.061 4.9261 1.3177 0.71779 4.0488 0.55636 4.0488 0.55636 1.0516-0.97135 4.1779-0.28213 6.8906-1.1138 2.7127-0.83167 4.9707 0.86472 4.9707 0.86471 3.168-0.58723 3.9271-4.7809 1.166-6.4414l-20.559-12.367-8.3477-6.5c-3.1093-2.5118-4.7549-4.1196-5.4805-5.084-0.72786-0.9674-0.73585-1.1525-0.89062-2.3008-0.19499-1.4466 0.29574-4.8266 1.084-5.9258 1.2776-1.7815 4.957-4.3752 6.0332-4.6426l3.3965-0.84375-1.6875-6.793-3.3965 0.84375c-4.1709 1.0363-8.7073 2.4406-11.093 5.768-2.6107 3.6405-2.7494 9.4304-2.332 12.527 0.22385 1.6607 0.8329 3.7115 2.2344 5.5742 1.4015 1.8627 4.4592 3.6803 7.7536 6.3398 0.01617 0.0125 0.03245 0.0249 0.04883 0.0371l8.543 6.1232c0.11036 0.0863 3.4008 0.69501 3.5207 0.76746l10.659 8.3203c-1.716 0.59888-3.3526-0.14724-4.9805 0.88515l-15.084-6.6332c-0.01427-8e-3 -0.02859-0.0157-0.04297-0.0234-4.2726-2.2496-7.6427-3.473-10.145-4.5547-2.5018-1.0817-4.0253-1.9177-5.5449-3.5723-1.9675-2.1423-1.4722-0.78618-5.3711-6.8066-3.2317-12.001-8.1059-23.857-7.1911-40.57 0.89959-1.6732 2.1366-4.3872 4.8122-5.9375 3.2522-2.4667 7.0485-5.5451 10.336-6.5707 3.4599-0.49074 10.374-1.3054 14.094-1.4549 5.8367 0.103 12.049 1.4949 17.244 2.5546 1.3857 0.28263 2.6628-1.0255 3.8047-0.71836l3.3789 0.9082 1.8184-6.7598-3.3789-0.9082c-1.378-0.37061-2.7875-0.67368-4.2247-0.9668-5.5293-1.1277-12.089-2.0546-18.521-2.168-0.0091-3.6e-5 -0.01823-3.6e-5 -0.02734 0z" color="#000000" style="-inkscape-stroke:none;paint-order:stroke fill markers"/>
 </g>
</svg>
