<?xml version="1.0" encoding="UTF-8"?>
<!-- Created with Inkscape (http://www.inkscape.org/) -->
<svg width="135.54mm" height="120.64mm" version="1.1" viewBox="0 0 135.54 120.64" xmlns="http://www.w3.org/2000/svg">
 <g transform="translate(-11.564 -43.684)" fill="none" stroke="#fff" stroke-linecap="square" stroke-linejoin="round" stroke-miterlimit="58.8" stroke-width="7">
  <path d="m112.52 149.25s-3.7889-1.8757-9.3681-4.1644c-4.4018-1.8057-9.8967-3.6687-15.672-6.4479-3.28-1.5785-6.6852-3.7776-9.931-5.4865-11.404-16.333-10.891-26.419-10.891-26.419-0.60029-1.9656-0.59876-3.4317-1.2046-5.401-1.578-5.1291-1.8241-11.284-1.597-16.61 0.29652-6.9516 1.5691-10.904 1.5691-10.904s1.8917-2.9025 5.9371-5.5783c2.9484-1.9502 6.0922-5.0708 10.36-6.4827 2.9186-0.96554 6.0122-2.0969 9.2846-2.047 4.8807 0.07455 10.944-1.1466 17.268-1.0352 6.1349 0.10809 12.521 1.5326 17.884 2.6263 5.6716 1.1568 10.242 2.3559 12.729 6.5655 4.3688 7.3962 5.1984 14.613 1.7644 21.374-1.4286 2.8126-2.6313 6.3696-6.1588 8.517-2.0862 1.27-4.9735 3.499-7.875 4.4808-5.3622 1.8143-12.113-1-17.922-4.1235-1.382-0.74302-3.9904-3.568-5.2392-4.3317-5.4108-3.3089-8.1901 1.4093-8.1901 1.4093s-3.8684 1.5859-5.701 8.3248c-0.21631 0.79543-1.0737-2.0398-1.2522-1.2258-0.60413 2.7538 0.75335 5.4674 0.81476 8.0415 1.6616 18.165-0.93975 10.808 19.134 26.529l1.6036 6.2292z" style="paint-order:stroke fill markers"/>
  <path d="m60.276 95.42c-2.6236 0.65183-6.203 3.4445-8.0349 5.999-1.6995 2.3698-2.0136 6.1612-1.7074 8.4328 0.37863 2.809 1.2366 4.4722 7.6594 9.6572l8.5436 6.6524 20.74 12.475s-9.7585 1.8072-13.598 5.3535l-16.851-9.1841c-8.128-4.2794-12.73-4.6045-16.635-8.8571-1.6058-1.7484-1.5109-0.67248-6.0138-7.677-3.2279-12.069-7.3748-24.64-6.4074-42.27 0.29652-6.9516 0 0 0 0s0.30418-5.0192 4.3496-7.695c7.52-11.124 13.041-10.768 27.388-10.623 6.1349 0.10809 12.521 1.0034 17.884 2.0972 1.4114 0.28787 2.7547 0.57836 4.0146 0.91722" style="paint-order:stroke fill markers"/>
 </g>
</svg>
